<svg width="1736" height="660" viewBox="0 0 1736 660" fill="none" xmlns="http://www.w3.org/2000/svg">
<path d="M330 645C503.97 645 645 503.97 645 330C645 156.03 503.97 15 330 15C156.03 15 15 156.03 15 330C15 503.97 156.03 645 330 645Z" stroke="white" stroke-width="30"/>
<path fill-rule="evenodd" clip-rule="evenodd" d="M510 260V360H210V360.001L197.093 360.001C210.754 420.677 264.97 466 329.773 466C383.347 466 429.686 435.022 451.855 390.002L510 390.001V474C510 493.882 493.882 510 474 510H186C166.118 510 150 493.882 150 474V260H510ZM417.327 390.002C398.235 417.914 366.143 436.232 329.773 436.232C293.402 436.232 261.31 417.914 242.219 390.002H417.327ZM253 284C224.788 284 201.449 304.862 197.567 332L228.254 332.001C231.628 321.555 241.432 314 253 314C264.568 314 274.372 321.555 277.746 332.001L308.433 332C304.551 304.862 281.212 284 253 284ZM407 284C378.788 284 355.449 304.862 351.567 332L382.254 332.001C385.628 321.555 395.432 314 407 314C418.568 314 428.372 321.555 431.746 332.001L462.433 332C458.551 304.862 435.212 284 407 284ZM474 150C493.882 150 510 166.118 510 186V230H150V186C150 166.118 166.118 150 186 150H474Z" fill="white"/>
<path d="M1408.12 270.629C1447.32 270.629 1491.84 286.276 1494.51 336.346H1439.71C1438.57 321.873 1425.63 315.223 1408.5 315.223C1392.52 315.223 1385.29 321.481 1385.29 328.914C1385.29 335.172 1389.86 341.04 1404.32 343.778L1438.95 349.646C1473.58 356.296 1496.41 373.507 1496.41 407.148C1496.41 450.959 1457.97 471.3 1410.02 471.3C1361.7 471.3 1322.5 450.568 1318.69 400.107L1373.49 400.498C1376.16 416.927 1389.48 424.359 1408.88 424.359C1425.25 424.359 1435.14 419.274 1435.14 411.06C1435.14 404.801 1429.43 399.716 1417.25 397.76L1379.96 391.11C1348 385.633 1325.92 367.248 1325.92 333.999C1325.92 294.099 1359.03 270.629 1408.12 270.629ZM1177.13 271.367C1197.26 271.367 1213.98 276.837 1227.65 285.825V275.665H1289.19V465.179H1227.65V454.629C1213.98 463.616 1197.26 469.087 1177.13 469.087C1127.36 469.087 1085.58 426.495 1085.58 370.227C1085.58 313.568 1127.36 271.367 1177.13 271.367ZM816.664 199.066L908.942 341.24L1000.84 199.066H1048.88V465.398H984.441V331.84L926.863 423.098V423.49H891.02V423.098L833.06 331.057L833.442 465.398H769V199.066H816.664ZM1591.96 188V347.015L1656.36 275.908H1729.9L1659.79 353.267L1736 465.398H1662.07L1617.87 399.76L1591.96 428.281V465.398H1530.22V188H1591.96ZM1189.29 322.946C1164.21 322.946 1145.98 344.047 1145.98 370.227C1145.98 396.407 1164.21 417.117 1189.29 417.117C1202.96 417.117 1216.26 413.209 1227.65 399.533V340.921C1216.26 327.244 1202.96 322.946 1189.29 322.946Z" fill="white"/>
</svg>
