<?xml version="1.0" encoding="UTF-8"?>
<svg width="840px" height="840px" viewBox="0 0 840 840" version="1.1" xmlns="http://www.w3.org/2000/svg" xmlns:xlink="http://www.w3.org/1999/xlink">
    <!-- Generator: Sketch 57.1 (83088) - https://sketch.com -->
    <title>MB--Logo--CombV-Circle--Black</title>
    <desc>Created with Sketch.</desc>
    <g id="MB--Logo--CombV-Circle--Black" stroke="none" stroke-width="1" fill="none" fill-rule="evenodd">
        <path d="M157.122,728.28 L157.122,833 L131.096,833 L131.096,780.486 L107.842,816.368 L107.842,816.522 L93.366,816.522 L93.366,816.368 L69.958,780.178 L70.112,833 L44.086,833 L44.086,728.28 L63.336,728.28 L100.604,784.182 L137.718,728.28 L157.122,728.28 Z M253.988,758.31 L253.988,833 L229.04,833 L229.04,828.842 C223.496,832.384 216.72,834.54 208.558,834.54 C188.384,834.54 171.444,817.754 171.444,795.578 C171.444,773.248 188.384,756.616 208.558,756.616 C216.72,756.616 223.496,758.772 229.04,762.314 L229.04,758.31 L253.988,758.31 Z M213.486,814.058 C219.03,814.058 224.42,812.518 229.04,807.128 L229.04,784.028 C224.42,778.638 219.03,776.944 213.486,776.944 C203.322,776.944 195.93,785.26 195.93,795.578 C195.93,805.896 203.322,814.058 213.486,814.058 Z M265.846,807.282 L288.022,807.436 C289.1,813.904 294.49,816.83 302.344,816.83 C308.966,816.83 312.97,814.828 312.97,811.594 C312.97,809.13 310.66,807.128 305.732,806.358 L290.64,803.74 C277.704,801.584 268.772,794.346 268.772,781.256 C268.772,765.548 282.17,756.308 302.036,756.308 C317.898,756.308 335.916,762.468 336.994,782.18 L314.818,782.18 C314.356,776.482 309.12,773.864 302.19,773.864 C295.722,773.864 292.796,776.328 292.796,779.254 C292.796,781.718 294.644,784.028 300.496,785.106 L314.51,787.416 C328.524,790.034 337.764,796.81 337.764,810.054 C337.764,827.302 322.21,835.31 302.806,835.31 C283.248,835.31 267.386,827.148 265.846,807.282 Z M386.582,807.128 L376.11,818.37 L376.11,833 L351.162,833 L351.162,723.66 L376.11,723.66 L376.11,786.338 L402.136,758.31 L431.858,758.31 L403.522,788.802 L434.322,833 L404.446,833 L386.582,807.128 Z M488.684,756.924 C508.858,756.924 525.798,773.556 525.798,795.732 C525.798,818.062 508.858,834.848 488.684,834.848 C480.522,834.848 473.746,832.692 468.202,829.15 L468.202,833 L443.254,833 L443.254,723.66 L468.202,723.66 L468.202,762.622 C473.746,759.08 480.522,756.924 488.684,756.924 Z M483.756,814.366 C493.92,814.366 501.312,806.204 501.312,795.732 C501.312,785.568 493.92,777.252 483.756,777.252 C478.212,777.252 472.822,778.946 468.202,784.336 L468.202,807.436 C472.822,812.826 478.212,814.366 483.756,814.366 Z M576.464,756.616 C600.026,756.616 616.966,773.094 616.966,795.578 C616.966,818.37 600.026,835.31 576.464,835.31 C552.902,835.31 535.962,818.37 535.962,795.578 C535.962,773.094 552.902,756.616 576.464,756.616 Z M576.618,813.75 C586.628,813.75 593.404,805.742 593.404,795.732 C593.404,786.03 586.628,778.176 576.618,778.176 C566.454,778.176 559.678,786.03 559.678,795.732 C559.678,805.742 566.454,813.75 576.618,813.75 Z M667.786,756.616 C691.348,756.616 708.288,773.094 708.288,795.578 C708.288,818.37 691.348,835.31 667.786,835.31 C644.224,835.31 627.284,818.37 627.284,795.578 C627.284,773.094 644.224,756.616 667.786,756.616 Z M667.94,813.75 C677.95,813.75 684.726,805.742 684.726,795.732 C684.726,786.03 677.95,778.176 667.94,778.176 C657.776,778.176 651,786.03 651,795.732 C651,805.742 657.776,813.75 667.94,813.75 Z M756.952,807.128 L746.48,818.37 L746.48,833 L721.532,833 L721.532,723.66 L746.48,723.66 L746.48,786.338 L772.506,758.31 L802.228,758.31 L773.892,788.802 L804.692,833 L774.816,833 L756.952,807.128 Z" id="Maskbook" fill="#000000" fill-rule="nonzero"></path>
        <g id="Group" transform="translate(100.000000, 30.000000)">
            <circle id="Oval" fill="#000000" cx="300" cy="300" r="300"></circle>
            <path d="M480,230 L480,330 L180,330 L180,330.001 L167.092637,330.001293 C180.753837,390.677229 234.970343,436 299.772548,436 C353.346739,436 399.685718,405.022375 421.854746,360.001864 L421.854746,360.001864 L480,360.001 L480,444 C480,463.882251 463.882251,480 444,480 L156,480 C136.117749,480 120,463.882251 120,444 L120,230 L480,230 Z M387.326493,360.00167 C368.234736,387.914297 336.14276,406.231603 299.772548,406.231603 C263.402336,406.231603 231.31036,387.914297 212.218603,360.00167 L212.218603,360.00167 Z M223,254 C194.788109,254 171.448756,274.861818 167.567063,302.000334 L167.567063,302.000334 L198.253822,302.000543 C201.627886,291.555206 211.431636,284 223,284 C234.568364,284 244.372114,291.555206 247.746178,302.000543 L247.746178,302.000543 L278.432937,302.000334 C274.551244,274.861818 251.211891,254 223,254 Z M377,254 C348.788109,254 325.448756,274.861818 321.567063,302.000334 L321.567063,302.000334 L352.253822,302.000543 C355.627886,291.555206 365.431636,284 377,284 C388.568364,284 398.372114,291.555206 401.746178,302.000543 L401.746178,302.000543 L432.432937,302.000334 C428.551244,274.861818 405.211891,254 377,254 Z M444,120 C463.882251,120 480,136.117749 480,156 L480,200 L120,200 L120,156 C120,136.117749 136.117749,120 156,120 L444,120 Z" id="maskbook-icon--book--black" fill="#FFFFFF"></path>
        </g>
    </g>
</svg>