<?xml version="1.0" encoding="UTF-8"?>
<svg width="500px" height="500px" viewBox="0 0 500 500" version="1.1" xmlns="http://www.w3.org/2000/svg" xmlns:xlink="http://www.w3.org/1999/xlink">
    <!-- Generator: Sketch 57.1 (83088) - https://sketch.com -->
    <title>MB--SquareCanvas--WhiteOverBlue</title>
    <desc>Created with Sketch.</desc>
    <defs>
        <path d="M430,180 L430,280 L130,280 L130,280.001 L117.092637,280.001293 C130.753837,340.677229 184.970343,386 249.772548,386 C303.346739,386 349.685718,355.022375 371.854746,310.001864 L371.854746,310.001864 L430,310.001 L430,394 C430,413.882251 413.882251,430 394,430 L106,430 C86.117749,430 70,413.882251 70,394 L70,180 L430,180 Z M337.326493,310.00167 C318.234736,337.914297 286.14276,356.231603 249.772548,356.231603 C213.402336,356.231603 181.31036,337.914297 162.218603,310.00167 L162.218603,310.00167 Z M173,204 C144.788109,204 121.448756,224.861818 117.567063,252.000334 L117.567063,252.000334 L148.253822,252.000543 C151.627886,241.555206 161.431636,234 173,234 C184.568364,234 194.372114,241.555206 197.746178,252.000543 L197.746178,252.000543 L228.432937,252.000334 C224.551244,224.861818 201.211891,204 173,204 Z M327,204 C298.788109,204 275.448756,224.861818 271.567063,252.000334 L271.567063,252.000334 L302.253822,252.000543 C305.627886,241.555206 315.431636,234 327,234 C338.568364,234 348.372114,241.555206 351.746178,252.000543 L351.746178,252.000543 L382.432937,252.000334 C378.551244,224.861818 355.211891,204 327,204 Z M394,70 C413.882251,70 430,86.117749 430,106 L430,150 L70,150 L70,106 C70,86.117749 86.117749,70 106,70 L394,70 Z" id="path-1"></path>
    </defs>
    <g id="MB--SquareCanvas--WhiteOverBlue" stroke="none" stroke-width="1" fill="none" fill-rule="evenodd">
        <rect fill="#1C68F3" x="0" y="0" width="500" height="500"></rect>
        <g id="Group">
            <rect id="Rectangle" fill="#1C68F3" x="0" y="0" width="500" height="500" rx="50"></rect>
            <mask id="mask-2" fill="white">
                <use xlink:href="#path-1"></use>
            </mask>
            <use id="MB--Bare--White" fill="#FFFFFF" xlink:href="#path-1"></use>
        </g>
    </g>
</svg>