<?xml version="1.0" encoding="UTF-8"?>
<svg width="2680px" height="560px" viewBox="0 0 2680 560" version="1.1" xmlns="http://www.w3.org/2000/svg" xmlns:xlink="http://www.w3.org/1999/xlink">
    <!-- Generator: Sketch 57.1 (83088) - https://sketch.com -->
    <title>MB--Logo--CombH-Squircle--Blue</title>
    <desc>Created with Sketch.</desc>
    <defs>
        <path d="M430,180 L430,280 L130,280 L130,280.001 L117.092637,280.001293 C130.753837,340.677229 184.970343,386 249.772548,386 C303.346739,386 349.685718,355.022375 371.854746,310.001864 L371.854746,310.001864 L430,310.001 L430,394 C430,413.882251 413.882251,430 394,430 L106,430 C86.117749,430 70,413.882251 70,394 L70,180 L430,180 Z M337.326493,310.00167 C318.234736,337.914297 286.14276,356.231603 249.772548,356.231603 C213.402336,356.231603 181.31036,337.914297 162.218603,310.00167 L162.218603,310.00167 Z M173,204 C144.788109,204 121.448756,224.861818 117.567063,252.000334 L117.567063,252.000334 L148.253822,252.000543 C151.627886,241.555206 161.431636,234 173,234 C184.568364,234 194.372114,241.555206 197.746178,252.000543 L197.746178,252.000543 L228.432937,252.000334 C224.551244,224.861818 201.211891,204 173,204 Z M327,204 C298.788109,204 275.448756,224.861818 271.567063,252.000334 L271.567063,252.000334 L302.253822,252.000543 C305.627886,241.555206 315.431636,234 327,234 C338.568364,234 348.372114,241.555206 351.746178,252.000543 L351.746178,252.000543 L382.432937,252.000334 C378.551244,224.861818 355.211891,204 327,204 Z M394,70 C413.882251,70 430,86.117749 430,106 L430,150 L70,150 L70,106 C70,86.117749 86.117749,70 106,70 L394,70 Z" id="path-1"></path>
    </defs>
    <g id="MB--Logo--CombH-Squircle--Blue" stroke="none" stroke-width="1" fill="none" fill-rule="evenodd">
        <path d="M916.26,146.1 L942.86,146.1 L942.86,414 L888.14,414 L888.14,265.8 L805.3,382.08 L722.08,265.8 L722.08,414 L667.74,414 L667.74,146.1 L694.34,146.1 L805.3,299.62 L916.26,146.1 Z M1148.82,207.66 L1201.64,207.66 L1201.64,414 L1148.82,414 L1148.82,398.8 C1131.72,410.2 1111.2,417.04 1088.4,417.04 C1023.8,417.04 985.8,364.98 985.8,310.26 C985.8,255.16 1023.8,203.48 1088.4,203.48 C1110.06,203.48 1131.34,210.32 1148.82,220.58 L1148.82,207.66 Z M1148.82,352.06 L1148.82,269.22 C1135.9,258.2 1117.66,251.36 1097.9,251.36 C1060.28,251.36 1036.72,279.48 1036.72,310.26 C1036.72,341.42 1060.66,369.54 1097.9,369.54 C1118.04,369.54 1135.9,363.08 1148.82,352.06 Z M1237.74,397.28 L1257.5,358.14 C1282.96,369.16 1302.34,374.86 1328.18,374.86 C1352.5,374.86 1362,365.74 1362,355.1 C1362,343.32 1350.22,338 1318.3,331.16 C1273.84,321.28 1241.54,306.84 1241.54,266.94 C1241.54,229.7 1272.32,203.86 1320.2,203.86 C1352.5,203.86 1378.34,211.46 1400.76,220.58 L1383.28,259.34 C1363.14,251.74 1339.58,246.04 1319.06,246.04 C1298.92,246.04 1288.66,253.26 1288.66,264.28 C1288.66,275.68 1301.2,281 1334.26,287.84 C1382.14,297.72 1409.88,314.44 1409.88,352.06 C1409.88,391.2 1379.86,417.04 1327.04,417.04 C1291.32,417.04 1268.14,412.1 1237.74,397.28 Z M1574.8,288.22 L1651.18,414 L1592.66,414 L1539.84,329.64 L1499.94,368.02 L1499.94,414 L1447.12,414 L1447.12,127.48 L1499.94,127.48 L1499.94,296.2 L1588.1,207.66 L1650.04,207.66 L1574.8,288.22 Z M1790.26,203.86 C1848.02,203.86 1894.76,246.04 1894.76,310.64 C1894.76,374.1 1848.02,417.42 1790.26,417.42 C1768.6,417.42 1747.32,411.34 1730.22,401.08 L1730.22,414 L1677.4,414 L1677.4,127.48 L1730.22,127.48 L1730.22,219.44 C1747.7,209.94 1768.22,203.86 1790.26,203.86 Z M1780.76,369.54 C1816.48,369.54 1842.7,345.6 1842.7,310.64 C1842.7,276.82 1816.48,251.36 1780.76,251.36 C1760.62,251.36 1743.14,258.2 1730.22,268.84 L1730.22,351.68 C1743.14,362.7 1761,369.54 1780.76,369.54 Z M2035.36,203.86 C2097.68,203.86 2148.22,251.36 2148.22,310.64 C2148.22,369.54 2097.68,417.04 2035.36,417.04 C1973.04,417.04 1922.5,369.54 1922.5,310.64 C1922.5,251.36 1973.04,203.86 2035.36,203.86 Z M2035.36,369.54 C2069.18,369.54 2096.16,342.94 2096.16,310.64 C2096.16,277.96 2069.18,251.36 2035.36,251.36 C2001.92,251.36 1974.56,277.96 1974.56,310.64 C1974.56,342.94 2001.92,369.54 2035.36,369.54 Z M2288.44,203.86 C2350.76,203.86 2401.3,251.36 2401.3,310.64 C2401.3,369.54 2350.76,417.04 2288.44,417.04 C2226.12,417.04 2175.58,369.54 2175.58,310.64 C2175.58,251.36 2226.12,203.86 2288.44,203.86 Z M2288.44,369.54 C2322.26,369.54 2349.24,342.94 2349.24,310.64 C2349.24,277.96 2322.26,251.36 2288.44,251.36 C2255,251.36 2227.64,277.96 2227.64,310.64 C2227.64,342.94 2255,369.54 2288.44,369.54 Z M2566.98,288.22 L2643.36,414 L2584.84,414 L2532.02,329.64 L2492.12,368.02 L2492.12,414 L2439.3,414 L2439.3,127.48 L2492.12,127.48 L2492.12,296.2 L2580.28,207.66 L2642.22,207.66 L2566.98,288.22 Z" id="Maskbook" fill="#1C68F3" fill-rule="nonzero"></path>
        <g id="Group" transform="translate(30.000000, 30.000000)">
            <rect id="Rectangle" fill="#1C68F3" x="0" y="0" width="500" height="500" rx="50"></rect>
            <mask id="mask-2" fill="white">
                <use xlink:href="#path-1"></use>
            </mask>
            <use id="MB--Bare--White" fill="#FFFFFF" xlink:href="#path-1"></use>
        </g>
    </g>
</svg>