<?xml version="1.0" encoding="UTF-8"?>
<svg width="2680px" height="560px" viewBox="0 0 2680 560" version="1.1" xmlns="http://www.w3.org/2000/svg" xmlns:xlink="http://www.w3.org/1999/xlink">
    <!-- Generator: Sketch 57.1 (83088) - https://sketch.com -->
    <title>MB--Logo--CombH-Squircle--Black</title>
    <desc>Created with Sketch.</desc>
    <defs>
        <path d="M430,180 L430,280 L130,280 L130,280.001 L117.092637,280.001293 C130.753837,340.677229 184.970343,386 249.772548,386 C303.346739,386 349.685718,355.022375 371.854746,310.001864 L371.854746,310.001864 L430,310.001 L430,394 C430,413.882251 413.882251,430 394,430 L106,430 C86.117749,430 70,413.882251 70,394 L70,180 L430,180 Z M337.326493,310.00167 C318.234736,337.914297 286.14276,356.231603 249.772548,356.231603 C213.402336,356.231603 181.31036,337.914297 162.218603,310.00167 L162.218603,310.00167 Z M173,204 C144.788109,204 121.448756,224.861818 117.567063,252.000334 L117.567063,252.000334 L148.253822,252.000543 C151.627886,241.555206 161.431636,234 173,234 C184.568364,234 194.372114,241.555206 197.746178,252.000543 L197.746178,252.000543 L228.432937,252.000334 C224.551244,224.861818 201.211891,204 173,204 Z M327,204 C298.788109,204 275.448756,224.861818 271.567063,252.000334 L271.567063,252.000334 L302.253822,252.000543 C305.627886,241.555206 315.431636,234 327,234 C338.568364,234 348.372114,241.555206 351.746178,252.000543 L351.746178,252.000543 L382.432937,252.000334 C378.551244,224.861818 355.211891,204 327,204 Z M394,70 C413.882251,70 430,86.117749 430,106 L430,150 L70,150 L70,106 C70,86.117749 86.117749,70 106,70 L394,70 Z" id="path-1"></path>
    </defs>
    <g id="MB--Logo--CombH-Squircle--Black" stroke="none" stroke-width="1" fill="none" fill-rule="evenodd">
        <path d="M941.72,155.6 L941.72,414 L877.5,414 L877.5,284.42 L820.12,372.96 L820.12,373.34 L784.4,373.34 L784.4,372.96 L726.64,283.66 L727.02,414 L662.8,414 L662.8,155.6 L710.3,155.6 L802.26,293.54 L893.84,155.6 L941.72,155.6 Z M1180.74,229.7 L1180.74,414 L1119.18,414 L1119.18,403.74 C1105.5,412.48 1088.78,417.8 1068.64,417.8 C1018.86,417.8 977.06,376.38 977.06,321.66 C977.06,266.56 1018.86,225.52 1068.64,225.52 C1088.78,225.52 1105.5,230.84 1119.18,239.58 L1119.18,229.7 L1180.74,229.7 Z M1080.8,367.26 C1094.48,367.26 1107.78,363.46 1119.18,350.16 L1119.18,293.16 C1107.78,279.86 1094.48,275.68 1080.8,275.68 C1055.72,275.68 1037.48,296.2 1037.48,321.66 C1037.48,347.12 1055.72,367.26 1080.8,367.26 Z M1210,350.54 L1264.72,350.92 C1267.38,366.88 1280.68,374.1 1300.06,374.1 C1316.4,374.1 1326.28,369.16 1326.28,361.18 C1326.28,355.1 1320.58,350.16 1308.42,348.26 L1271.18,341.8 C1239.26,336.48 1217.22,318.62 1217.22,286.32 C1217.22,247.56 1250.28,224.76 1299.3,224.76 C1338.44,224.76 1382.9,239.96 1385.56,288.6 L1330.84,288.6 C1329.7,274.54 1316.78,268.08 1299.68,268.08 C1283.72,268.08 1276.5,274.16 1276.5,281.38 C1276.5,287.46 1281.06,293.16 1295.5,295.82 L1330.08,301.52 C1364.66,307.98 1387.46,324.7 1387.46,357.38 C1387.46,399.94 1349.08,419.7 1301.2,419.7 C1252.94,419.7 1213.8,399.56 1210,350.54 Z M1507.92,350.16 L1482.08,377.9 L1482.08,414 L1420.52,414 L1420.52,144.2 L1482.08,144.2 L1482.08,298.86 L1546.3,229.7 L1619.64,229.7 L1549.72,304.94 L1625.72,414 L1552,414 L1507.92,350.16 Z M1759.86,226.28 C1809.64,226.28 1851.44,267.32 1851.44,322.04 C1851.44,377.14 1809.64,418.56 1759.86,418.56 C1739.72,418.56 1723,413.24 1709.32,404.5 L1709.32,414 L1647.76,414 L1647.76,144.2 L1709.32,144.2 L1709.32,240.34 C1723,231.6 1739.72,226.28 1759.86,226.28 Z M1747.7,368.02 C1772.78,368.02 1791.02,347.88 1791.02,322.04 C1791.02,296.96 1772.78,276.44 1747.7,276.44 C1734.02,276.44 1720.72,280.62 1709.32,293.92 L1709.32,350.92 C1720.72,364.22 1734.02,368.02 1747.7,368.02 Z M1976.46,225.52 C2034.6,225.52 2076.4,266.18 2076.4,321.66 C2076.4,377.9 2034.6,419.7 1976.46,419.7 C1918.32,419.7 1876.52,377.9 1876.52,321.66 C1876.52,266.18 1918.32,225.52 1976.46,225.52 Z M1976.84,366.5 C2001.54,366.5 2018.26,346.74 2018.26,322.04 C2018.26,298.1 2001.54,278.72 1976.84,278.72 C1951.76,278.72 1935.04,298.1 1935.04,322.04 C1935.04,346.74 1951.76,366.5 1976.84,366.5 Z M2201.8,225.52 C2259.94,225.52 2301.74,266.18 2301.74,321.66 C2301.74,377.9 2259.94,419.7 2201.8,419.7 C2143.66,419.7 2101.86,377.9 2101.86,321.66 C2101.86,266.18 2143.66,225.52 2201.8,225.52 Z M2202.18,366.5 C2226.88,366.5 2243.6,346.74 2243.6,322.04 C2243.6,298.1 2226.88,278.72 2202.18,278.72 C2177.1,278.72 2160.38,298.1 2160.38,322.04 C2160.38,346.74 2177.1,366.5 2202.18,366.5 Z M2421.82,350.16 L2395.98,377.9 L2395.98,414 L2334.42,414 L2334.42,144.2 L2395.98,144.2 L2395.98,298.86 L2460.2,229.7 L2533.54,229.7 L2463.62,304.94 L2539.62,414 L2465.9,414 L2421.82,350.16 Z" id="Maskbook" fill="#000000" fill-rule="nonzero"></path>
        <g id="Group" transform="translate(30.000000, 30.000000)">
            <rect id="Rectangle" fill="#000000" x="0" y="0" width="500" height="500" rx="50"></rect>
            <mask id="mask-2" fill="white">
                <use xlink:href="#path-1"></use>
            </mask>
            <use id="MB--Bare--White" fill="#FFFFFF" xlink:href="#path-1"></use>
        </g>
    </g>
</svg>