<svg height="880" viewBox="0 0 880 880" width="880" xmlns="http://www.w3.org/2000/svg"><g fill="none" fill-rule="evenodd"><g transform="translate(140 30)"><circle cx="300" cy="300" fill="#1c68f3" r="300"/><path d="m480 230v100h-300v.001l-12.907363.000293c13.6612 60.675936 67.877706 105.998707 132.679911 105.998707 53.574191 0 99.91317-30.977625 122.082198-75.998136l58.145254-.000864v83.999c0 19.882251-16.117749 36-36 36h-288c-19.882251 0-36-16.117749-36-36v-214zm-92.673507 130.00167c-19.091757 27.912627-51.183733 46.229933-87.553945 46.229933s-68.462188-18.317306-87.553945-46.229933zm-164.326493-106.00167c-28.211891 0-51.551244 20.861818-55.432937 48.000334l30.686759.000209c3.374064-10.445337 13.177814-18.000543 24.746178-18.000543s21.372114 7.555206 24.746178 18.000543l30.686759-.000209c-3.881693-27.138516-27.221046-48.000334-55.432937-48.000334zm154 0c-28.211891 0-51.551244 20.861818-55.432937 48.000334l30.686759.000209c3.374064-10.445337 13.177814-18.000543 24.746178-18.000543s21.372114 7.555206 24.746178 18.000543l30.686759-.000209c-3.881693-27.138516-27.221046-48.000334-55.432937-48.000334zm67-134c19.882251 0 36 16.117749 36 36v44h-360v-44c0-19.882251 16.117749-36 36-36z" fill="#fff"/></g><path d="m536.856531 758c24.481799 0 52.291221 9.512671 53.955032 39.953216h-34.226981c-.713062-8.79922-8.794432-12.842105-19.490364-12.842105-9.982869 0-14.498929 3.805068-14.498929 8.323587 0 3.805068 2.852248 7.37232 11.884368 9.037037l21.629551 3.567251c21.62955 4.042885 35.890792 14.506823 35.890792 34.959065 0 26.635477-24.006424 39.001949-53.955032 39.001949-30.186296 0-54.668094-12.604288-57.044968-43.282651l34.226981.237817c1.663811 9.988304 9.982869 14.506822 22.104925 14.506822 10.220557 0 16.400428-3.091618 16.400428-8.08577 0-3.805068-3.56531-6.896686-11.171306-8.08577l-23.293362-4.042885c-19.965739-3.329434-33.751606-14.506822-33.751606-34.721247 0-24.25731 20.678801-38.526316 51.340471-38.526316zm-143.753919 1c12.557836 0 22.983209 3.320158 31.51306 8.774704v-6.166008h38.384328v115.019762h-38.384328v-6.403162c-8.529851 5.454546-18.955224 8.774704-31.51306 8.774704-31.039179 0-57.102612-25.849802-57.102612-60 0-34.387352 26.063433-60 57.102612-60zm-224.470459-44 57.367847 85.945588 57.13079-85.945588h29.86921v161h-40.06267v-80.736765l-35.795641 55.166177v.236764h-22.283378v-.236764l-36.032698-55.639706.237057 81.210294h-40.06267v-161zm482.767847-7v96.304225l40.059259-43.064788h45.748148l-43.614814 46.850704 47.407407 67.909859h-45.985185l-27.496296-39.752113-16.118519 17.27324v22.478873h-38.4v-168zm-250.715299 82.304348c-15.638059 0-27.011194 12.806324-27.011194 28.695652s11.373135 28.458498 27.011194 28.458498c8.529851 0 16.822762-2.371541 23.930971-10.671937v-35.573122c-7.108209-8.300396-15.40112-10.909091-23.930971-10.909091z" fill="#1c68f3" fill-rule="nonzero"/></g></svg>