<?xml version="1.0" encoding="UTF-8"?>
<svg width="700px" height="700px" viewBox="0 0 700 700" version="1.1" xmlns="http://www.w3.org/2000/svg" xmlns:xlink="http://www.w3.org/1999/xlink">
    <!-- Generator: Sketch 57.1 (83088) - https://sketch.com -->
    <title>MB--Logo--CombV-Squircle--Blue</title>
    <desc>Created with Sketch.</desc>
    <defs>
        <path d="M430,180 L430,280 L130,280 L130,280.001 L117.092637,280.001293 C130.753837,340.677229 184.970343,386 249.772548,386 C303.346739,386 349.685718,355.022375 371.854746,310.001864 L371.854746,310.001864 L430,310.001 L430,394 C430,413.882251 413.882251,430 394,430 L106,430 C86.117749,430 70,413.882251 70,394 L70,180 L430,180 Z M337.326493,310.00167 C318.234736,337.914297 286.14276,356.231603 249.772548,356.231603 C213.402336,356.231603 181.31036,337.914297 162.218603,310.00167 L162.218603,310.00167 Z M173,204 C144.788109,204 121.448756,224.861818 117.567063,252.000334 L117.567063,252.000334 L148.253822,252.000543 C151.627886,241.555206 161.431636,234 173,234 C184.568364,234 194.372114,241.555206 197.746178,252.000543 L197.746178,252.000543 L228.432937,252.000334 C224.551244,224.861818 201.211891,204 173,204 Z M327,204 C298.788109,204 275.448756,224.861818 271.567063,252.000334 L271.567063,252.000334 L302.253822,252.000543 C305.627886,241.555206 315.431636,234 327,234 C338.568364,234 348.372114,241.555206 351.746178,252.000543 L351.746178,252.000543 L382.432937,252.000334 C378.551244,224.861818 355.211891,204 327,204 Z M394,70 C413.882251,70 430,86.117749 430,106 L430,150 L70,150 L70,106 C70,86.117749 86.117749,70 106,70 L394,70 Z" id="path-1"></path>
    </defs>
    <g id="MB--Logo--CombV-Squircle--Blue" stroke="none" stroke-width="1" fill="none" fill-rule="evenodd">
        <path d="M131.504,603.96 L131.504,691 L109.872,691 L109.872,647.352 L90.544,677.176 L90.544,677.304 L78.512,677.304 L78.512,677.176 L59.056,647.096 L59.184,691 L37.552,691 L37.552,603.96 L53.552,603.96 L84.528,650.424 L115.376,603.96 L131.504,603.96 Z M212.016,628.92 L212.016,691 L191.28,691 L191.28,687.544 C186.672,690.488 181.04,692.28 174.256,692.28 C157.488,692.28 143.408,678.328 143.408,659.896 C143.408,641.336 157.488,627.512 174.256,627.512 C181.04,627.512 186.672,629.304 191.28,632.248 L191.28,628.92 L212.016,628.92 Z M178.352,675.256 C182.96,675.256 187.44,673.976 191.28,669.496 L191.28,650.296 C187.44,645.816 182.96,644.408 178.352,644.408 C169.904,644.408 163.76,651.32 163.76,659.896 C163.76,668.472 169.904,675.256 178.352,675.256 Z M221.872,669.624 L240.304,669.752 C241.2,675.128 245.68,677.56 252.208,677.56 C257.712,677.56 261.04,675.896 261.04,673.208 C261.04,671.16 259.12,669.496 255.024,668.856 L242.48,666.68 C231.728,664.888 224.304,658.872 224.304,647.992 C224.304,634.936 235.44,627.256 251.952,627.256 C265.136,627.256 280.112,632.376 281.008,648.76 L262.576,648.76 C262.192,644.024 257.84,641.848 252.08,641.848 C246.704,641.848 244.272,643.896 244.272,646.328 C244.272,648.376 245.808,650.296 250.672,651.192 L262.32,653.112 C273.968,655.288 281.648,660.92 281.648,671.928 C281.648,686.264 268.72,692.92 252.592,692.92 C236.336,692.92 223.152,686.136 221.872,669.624 Z M322.224,669.496 L313.52,678.84 L313.52,691 L292.784,691 L292.784,600.12 L313.52,600.12 L313.52,652.216 L335.152,628.92 L359.856,628.92 L336.304,654.264 L361.904,691 L337.072,691 L322.224,669.496 Z M407.088,627.768 C423.856,627.768 437.936,641.592 437.936,660.024 C437.936,678.584 423.856,692.536 407.088,692.536 C400.304,692.536 394.672,690.744 390.064,687.8 L390.064,691 L369.328,691 L369.328,600.12 L390.064,600.12 L390.064,632.504 C394.672,629.56 400.304,627.768 407.088,627.768 Z M402.992,675.512 C411.44,675.512 417.584,668.728 417.584,660.024 C417.584,651.576 411.44,644.664 402.992,644.664 C398.384,644.664 393.904,646.072 390.064,650.552 L390.064,669.752 C393.904,674.232 398.384,675.512 402.992,675.512 Z M480.048,627.512 C499.632,627.512 513.712,641.208 513.712,659.896 C513.712,678.84 499.632,692.92 480.048,692.92 C460.464,692.92 446.384,678.84 446.384,659.896 C446.384,641.208 460.464,627.512 480.048,627.512 Z M480.176,675 C488.496,675 494.128,668.344 494.128,660.024 C494.128,651.96 488.496,645.432 480.176,645.432 C471.728,645.432 466.096,651.96 466.096,660.024 C466.096,668.344 471.728,675 480.176,675 Z M555.952,627.512 C575.536,627.512 589.616,641.208 589.616,659.896 C589.616,678.84 575.536,692.92 555.952,692.92 C536.368,692.92 522.288,678.84 522.288,659.896 C522.288,641.208 536.368,627.512 555.952,627.512 Z M556.08,675 C564.4,675 570.032,668.344 570.032,660.024 C570.032,651.96 564.4,645.432 556.08,645.432 C547.632,645.432 542,651.96 542,660.024 C542,668.344 547.632,675 556.08,675 Z M630.064,669.496 L621.36,678.84 L621.36,691 L600.624,691 L600.624,600.12 L621.36,600.12 L621.36,652.216 L642.992,628.92 L667.696,628.92 L644.144,654.264 L669.744,691 L644.912,691 L630.064,669.496 Z" id="Maskbook" fill="#1C68F3" fill-rule="nonzero"></path>
        <g id="Group" transform="translate(100.000000, 30.000000)">
            <rect id="Rectangle" fill="#1C68F3" x="0" y="0" width="500" height="500" rx="50"></rect>
            <mask id="mask-2" fill="white">
                <use xlink:href="#path-1"></use>
            </mask>
            <use id="MB--Bare--White" fill="#FFFFFF" xlink:href="#path-1"></use>
        </g>
    </g>
</svg>