<?xml version="1.0" encoding="UTF-8"?>
<svg width="1631px" height="240px" viewBox="0 0 1631 240" version="1.1" xmlns="http://www.w3.org/2000/svg" xmlns:xlink="http://www.w3.org/1999/xlink">
    <!-- Generator: Sketch 57.1 (83088) - https://sketch.com -->
    <title>MB--Logo--Text--Black</title>
    <desc>Created with Sketch.</desc>
    <g id="Branding" stroke="none" stroke-width="1" fill="none" fill-rule="evenodd">
        <g id="MB--Logo--Text" transform="translate(-206.000000, -64.000000)" fill="#000000" fill-rule="nonzero">
            <path d="M448.69,74.6 L448.69,299 L392.92,299 L392.92,186.47 L343.09,263.36 L343.09,263.69 L312.07,263.69 L312.07,263.36 L261.91,185.81 L262.24,299 L206.47,299 L206.47,74.6 L247.72,74.6 L327.58,194.39 L407.11,74.6 L448.69,74.6 Z M656.26,138.95 L656.26,299 L602.8,299 L602.8,290.09 C590.92,297.68 576.4,302.3 558.91,302.3 C515.68,302.3 479.38,266.33 479.38,218.81 C479.38,170.96 515.68,135.32 558.91,135.32 C576.4,135.32 590.92,139.94 602.8,147.53 L602.8,138.95 L656.26,138.95 Z M569.47,258.41 C581.35,258.41 592.9,255.11 602.8,243.56 L602.8,194.06 C592.9,182.51 581.35,178.88 569.47,178.88 C547.69,178.88 531.85,196.7 531.85,218.81 C531.85,240.92 547.69,258.41 569.47,258.41 Z M681.67,243.89 L729.19,244.22 C731.5,258.08 743.05,264.35 759.88,264.35 C774.07,264.35 782.65,260.06 782.65,253.13 C782.65,247.85 777.7,243.56 767.14,241.91 L734.8,236.3 C707.08,231.68 687.94,216.17 687.94,188.12 C687.94,154.46 716.65,134.66 759.22,134.66 C793.21,134.66 831.82,147.86 834.13,190.1 L786.61,190.1 C785.62,177.89 774.4,172.28 759.55,172.28 C745.69,172.28 739.42,177.56 739.42,183.83 C739.42,189.11 743.38,194.06 755.92,196.37 L785.95,201.32 C815.98,206.93 835.78,221.45 835.78,249.83 C835.78,286.79 802.45,303.95 760.87,303.95 C718.96,303.95 684.97,286.46 681.67,243.89 Z M940.39,243.56 L917.95,267.65 L917.95,299 L864.49,299 L864.49,64.7 L917.95,64.7 L917.95,199.01 L973.72,138.95 L1037.41,138.95 L976.69,204.29 L1042.69,299 L978.67,299 L940.39,243.56 Z M1159.18,135.98 C1202.41,135.98 1238.71,171.62 1238.71,219.14 C1238.71,266.99 1202.41,302.96 1159.18,302.96 C1141.69,302.96 1127.17,298.34 1115.29,290.75 L1115.29,299 L1061.83,299 L1061.83,64.7 L1115.29,64.7 L1115.29,148.19 C1127.17,140.6 1141.69,135.98 1159.18,135.98 Z M1148.62,259.07 C1170.4,259.07 1186.24,241.58 1186.24,219.14 C1186.24,197.36 1170.4,179.54 1148.62,179.54 C1136.74,179.54 1125.19,183.17 1115.29,194.72 L1115.29,244.22 C1125.19,255.77 1136.74,259.07 1148.62,259.07 Z M1347.28,135.32 C1397.77,135.32 1434.07,170.63 1434.07,218.81 C1434.07,267.65 1397.77,303.95 1347.28,303.95 C1296.79,303.95 1260.49,267.65 1260.49,218.81 C1260.49,170.63 1296.79,135.32 1347.28,135.32 Z M1347.61,257.75 C1369.06,257.75 1383.58,240.59 1383.58,219.14 C1383.58,198.35 1369.06,181.52 1347.61,181.52 C1325.83,181.52 1311.31,198.35 1311.31,219.14 C1311.31,240.59 1325.83,257.75 1347.61,257.75 Z M1542.97,135.32 C1593.46,135.32 1629.76,170.63 1629.76,218.81 C1629.76,267.65 1593.46,303.95 1542.97,303.95 C1492.48,303.95 1456.18,267.65 1456.18,218.81 C1456.18,170.63 1492.48,135.32 1542.97,135.32 Z M1543.3,257.75 C1564.75,257.75 1579.27,240.59 1579.27,219.14 C1579.27,198.35 1564.75,181.52 1543.3,181.52 C1521.52,181.52 1507,198.35 1507,219.14 C1507,240.59 1521.52,257.75 1543.3,257.75 Z M1734.04,243.56 L1711.6,267.65 L1711.6,299 L1658.14,299 L1658.14,64.7 L1711.6,64.7 L1711.6,199.01 L1767.37,138.95 L1831.06,138.95 L1770.34,204.29 L1836.34,299 L1772.32,299 L1734.04,243.56 Z" id="MB--Logo--Text--Black"></path>
        </g>
    </g>
</svg>