<svg height="560" viewBox="0 0 1974 560" width="1974" xmlns="http://www.w3.org/2000/svg"><g fill="none" fill-rule="evenodd"><g transform="translate(30 30)"><rect fill="#1c68f3" height="500" rx="50" width="500"/><path d="m430 180v100h-300v.001l-12.907363.000293c13.6612 60.675936 67.877706 105.998707 132.679911 105.998707 53.574191 0 99.91317-30.977625 122.082198-75.998136l58.145254-.000864v83.999c0 19.882251-16.117749 36-36 36h-288c-19.882251 0-36-16.117749-36-36v-214zm-92.673507 130.00167c-19.091757 27.912627-51.183733 46.229933-87.553945 46.229933s-68.462188-18.317306-87.553945-46.229933zm-164.326493-106.00167c-28.211891 0-51.551244 20.861818-55.432937 48.000334l30.686759.000209c3.374064-10.445337 13.177814-18.000543 24.746178-18.000543s21.372114 7.555206 24.746178 18.000543l30.686759-.000209c-3.881693-27.138516-27.221046-48.000334-55.432937-48.000334zm154 0c-28.211891 0-51.551244 20.861818-55.432937 48.000334l30.686759.000209c3.374064-10.445337 13.177814-18.000543 24.746178-18.000543s21.372114 7.555206 24.746178 18.000543l30.686759-.000209c-3.881693-27.138516-27.221046-48.000334-55.432937-48.000334zm67-134c19.882251 0 36 16.117749 36 36v44h-360v-44c0-19.882251 16.117749-36 36-36z" fill="#fff"/></g><path d="m1488.29336 196c54.47752 0 116.35974 21.208577 120.0621 89.076023h-76.16274c-1.58672-19.617933-19.56959-28.631579-43.37045-28.631579-22.21413 0-32.26338 8.483431-32.26338 18.557505 0 8.483431 6.34689 16.436647 26.44539 20.148148l48.13062 7.953217c48.13062 9.013645 79.8651 32.34308 79.8651 77.94152 0 59.384016-53.4197 86.955166-120.0621 86.955166-67.1713 0-121.64882-28.101365-126.9379-96.499025l76.16274.530214c3.70236 22.269006 22.21413 32.34308 49.18844 32.34308 22.74304 0 36.49464-6.892788 36.49464-18.02729 0-8.483431-7.93361-15.376219-24.85867-18.027291l-51.83297-9.013645c-44.42827-7.423002-75.10493-32.34308-75.10493-77.411306 0-54.081872 46.01499-85.894737 114.24411-85.894737zm-321.04896 1c27.98321 0 51.21456 7.41502 70.22202 19.596838v-13.770751h85.53358v256.87747h-85.53358v-14.300395c-19.00746 12.181818-42.23881 19.596838-70.22202 19.596838-69.16604 0-127.2444-57.731225-127.2444-134 0-76.798419 58.07836-134 127.2444-134zm-500.997806-98 128.253406 192.710294 127.723433-192.710294h66.776567v361h-89.565395v-181.030882l-80.025886 123.695588v.530882h-49.817438v-.530882l-80.555859-124.757353.529973 182.092647h-89.565395v-361zm1077.553406-15v215.538028l89.50741-96.383098h102.21852l-97.45186 104.856338 105.92593 151.988732h-102.74815l-61.43704-88.969014-36.01481 38.659155v50.309859h-85.8v-376zm-559.66007 182.913043c-34.84702 0-60.1903 28.600791-60.1903 64.086957s25.34328 63.557312 60.1903 63.557312c19.00746 0 37.48694-5.296442 53.32649-23.833992v-79.44664c-15.83955-18.53755-34.31903-24.363637-53.32649-24.363637z" fill="#1c68f3" fill-rule="nonzero"/></g></svg>