<svg fill="none" height="72" viewBox="0 0 250 72" width="250" xmlns="http://www.w3.org/2000/svg" xmlns:xlink="http://www.w3.org/1999/xlink"><clipPath id="a"><path d="m0 0h250v72h-250z"/></clipPath><g clip-path="url(#a)"><path d="m36 72c19.8823 0 36-16.1177 36-36s-16.1177-36-36-36c-19.8822 0-36 16.1177-36 36s16.1178 36 36 36z" fill="#1c68f3"/><path d="m194.803 26.9428c6.598 0 14.094 2.5355 14.542 10.6491h-9.225c-.192-2.3453-2.37-3.4229-5.253-3.4229-2.691 0-3.908 1.0142-3.908 2.2186 0 1.0142.769 1.965 3.203 2.4087l5.83.9508c5.83 1.0776 9.673 3.8667 9.673 9.3181 0 7.0994-6.47 10.3956-14.542 10.3956-8.136 0-14.735-3.3596-15.375-11.5366l9.225.0634c.448 2.6623 2.691 3.8667 5.958 3.8667 2.755 0 4.42-.8241 4.42-2.1552 0-1.0142-.961-1.8383-3.011-2.1552l-6.278-1.0776c-5.381-.8875-9.097-3.8667-9.097-9.2547 0-6.4656 5.573-10.2688 13.838-10.2688zm-38.887.1195c3.389 0 6.203.8865 8.505 2.3428v-1.6463h10.361v30.7102h-10.361v-1.7097c-2.302 1.4564-5.116 2.3429-8.505 2.3429-8.378 0-15.412-6.9019-15.412-16.02 0-9.1813 7.034-16.0199 15.412-16.0199zm-60.683-11.716 15.535 23.0388 15.47-23.0388h8.088v43.1581h-10.848v-21.6425l-9.693 14.788v.0634h-6.034v-.0634l-9.7577-14.915.0642 21.7695h-10.8485v-43.1581zm130.518-1.7933v25.7679l10.841-11.5228h12.381l-11.804 12.5358 12.831 18.1705h-12.446l-7.441-10.6364-4.362 4.6218v6.0146h-10.393v-44.9514zm-67.789 21.8675c-4.22 0-7.29 3.4193-7.29 7.6617 0 4.2425 3.07 7.5984 7.29 7.5984 2.303 0 4.541-.6332 6.459-2.8494v-9.498c-1.918-2.2161-4.156-2.9127-6.459-2.9127z" fill="#1c68f3"/><path clip-rule="evenodd" d="m57.7288 27.1507v11.9552h-36.4407l-1.5678.0001c1.6594 7.2539 8.245 12.6723 16.1165 12.6723 6.5076 0 12.1363-3.7034 14.8292-9.0857l7.0628-.0001v10.0422c0 2.377-1.9578 4.3039-4.3729 4.3039h-34.983c-2.4151 0-4.3729-1.9269-4.3729-4.3039v-25.584zm-11.2569 15.5419c-2.3191 3.337-6.2173 5.5269-10.6351 5.5269-4.4179 0-8.3161-2.1899-10.6351-5.5269zm-19.9606-12.6727c-3.4269 0-6.2619 2.4941-6.7334 5.7385l3.7275.0001c.4098-1.2488 1.6007-2.152 3.0059-2.152s2.596.9032 3.0059 2.152l3.7275-.0001c-.4715-3.2444-3.3065-5.7385-6.7334-5.7385zm18.7062 0c-3.4269 0-6.2619 2.4941-6.7334 5.7385l3.7275.0001c.4099-1.2488 1.6007-2.152 3.0059-2.152s2.5961.9032 3.0059 2.152l3.7275-.0001c-.4715-3.2444-3.3065-5.7385-6.7334-5.7385zm8.1384-16.0199c2.4151 0 4.3729 1.9269 4.3729 4.3039v5.2602h-43.7288v-5.2602c0-2.377 1.9578-4.3039 4.3729-4.3039z" fill="#fff" fill-rule="evenodd"/></g></svg>