<?xml version="1.0" encoding="UTF-8"?>
<svg width="740px" height="740px" viewBox="0 0 740 740" version="1.1" xmlns="http://www.w3.org/2000/svg" xmlns:xlink="http://www.w3.org/1999/xlink">
    <title>MB--Logo--CombV-Squircle--Black</title>
    <defs>
        <path d="M430,180 L430,280 L130,280 L130,280.001 L117.092637,280.001293 C130.753837,340.677229 184.970343,386 249.772548,386 C303.346739,386 349.685718,355.022375 371.854746,310.001864 L371.854746,310.001864 L430,310.001 L430,394 C430,413.882251 413.882251,430 394,430 L106,430 C86.117749,430 70,413.882251 70,394 L70,180 L430,180 Z M337.326493,310.00167 C318.234736,337.914297 286.14276,356.231603 249.772548,356.231603 C213.402336,356.231603 181.31036,337.914297 162.218603,310.00167 L162.218603,310.00167 Z M173,204 C144.788109,204 121.448756,224.861818 117.567063,252.000334 L117.567063,252.000334 L148.253822,252.000543 C151.627886,241.555206 161.431636,234 173,234 C184.568364,234 194.372114,241.555206 197.746178,252.000543 L197.746178,252.000543 L228.432937,252.000334 C224.551244,224.861818 201.211891,204 173,204 Z M327,204 C298.788109,204 275.448756,224.861818 271.567063,252.000334 L271.567063,252.000334 L302.253822,252.000543 C305.627886,241.555206 315.431636,234 327,234 C338.568364,234 348.372114,241.555206 351.746178,252.000543 L351.746178,252.000543 L382.432937,252.000334 C378.551244,224.861818 355.211891,204 327,204 Z M394,70 C413.882251,70 430,86.117749 430,106 L430,150 L70,150 L70,106 C70,86.117749 86.117749,70 106,70 L394,70 Z" id="path-1"></path>
    </defs>
    <g id="MB--Logo--CombV-Squircle--Black" stroke="none" stroke-width="1" fill="none" fill-rule="evenodd">
        <g id="Group" transform="translate(120.000000, 30.000000)">
            <rect id="Rectangle" fill="#000000" x="0" y="0" width="500" height="500" rx="50"></rect>
            <mask id="mask-2" fill="white">
                <use xlink:href="#path-1"></use>
            </mask>
            <use id="MB--Bare--White" fill="#FFFFFF" xlink:href="#path-1"></use>
        </g>
        <path d="M328.908582,635 C339.884328,635 348.996269,637.905138 356.451493,642.677866 L356.451493,637.282609 L390,637.282609 L390,737.924901 L356.451493,737.924901 L356.451493,732.322134 C348.996269,737.094862 339.884328,740 328.908582,740 C301.779851,740 279,717.381423 279,687.5 C279,657.411067 301.779851,635 328.908582,635 Z M454.811563,634 C476.205567,634 500.507495,642.265107 501.961456,668.71345 L472.051392,668.71345 C471.428266,661.068226 464.366167,657.555556 455.019272,657.555556 C446.295503,657.555556 442.349036,660.861598 442.349036,664.787524 C442.349036,668.093567 444.841542,671.192982 452.734475,672.639376 L471.635974,675.738791 C490.537473,679.251462 503,688.34308 503,706.11306 C503,729.255361 482.021413,740 455.850107,740 C429.471092,740 408.077088,729.048733 406,702.393762 L435.910064,702.60039 C437.364026,711.278752 444.633833,715.204678 455.226981,715.204678 C464.158458,715.204678 469.558887,712.518519 469.558887,708.179337 C469.558887,704.873294 466.443255,702.187135 459.796574,701.153996 L439.441113,697.641326 C421.993576,694.748538 409.946467,685.037037 409.946467,667.473684 C409.946467,646.397661 428.017131,634 454.811563,634 Z M133.885559,596 L184,671.269118 L233.907357,596 L260,596 L260,737 L225.002725,737 L225.002725,666.292647 L193.73297,714.605882 L193.73297,714.813235 L174.26703,714.813235 L174.26703,714.605882 L142.790191,665.877941 L142.997275,737 L108,737 L108,596 L133.885559,596 Z M553.6,590 L553.6,674.266197 L588.651852,636.584507 L628.681481,636.584507 L590.518519,677.578873 L632,737 L591.762963,737 L567.703704,702.216901 L553.6,717.330986 L553.6,737 L520,737 L520,590 L553.6,590 Z M335.535448,662.391304 C321.867537,662.391304 311.927239,673.596838 311.927239,687.5 C311.927239,701.403162 321.867537,712.401186 335.535448,712.401186 C342.990672,712.401186 350.238806,710.326087 356.451493,703.063241 L356.451493,671.936759 C350.238806,664.673913 342.990672,662.391304 335.535448,662.391304 Z" id="形状结合" fill="#000000" fill-rule="nonzero"></path>
    </g>
</svg>