<?xml version="1.0" encoding="UTF-8"?>
<svg width="880px" height="880px" viewBox="0 0 880 880" version="1.1" xmlns="http://www.w3.org/2000/svg" xmlns:xlink="http://www.w3.org/1999/xlink">
    <title>MB--Logo--CombV-Circle--Blue</title>
    <g id="MB--Logo--CombV-Circle--Blue" stroke="none" stroke-width="1" fill="none" fill-rule="evenodd">
        <g id="Group" transform="translate(140.000000, 30.000000)">
            <circle id="Oval" fill="#1C68F3" cx="300" cy="300" r="300"></circle>
            <path d="M480,230 L480,330 L180,330 L180,330.001 L167.092637,330.001293 C180.753837,390.677229 234.970343,436 299.772548,436 C353.346739,436 399.685718,405.022375 421.854746,360.001864 L421.854746,360.001864 L480,360.001 L480,444 C480,463.882251 463.882251,480 444,480 L156,480 C136.117749,480 120,463.882251 120,444 L120,230 L480,230 Z M387.326493,360.00167 C368.234736,387.914297 336.14276,406.231603 299.772548,406.231603 C263.402336,406.231603 231.31036,387.914297 212.218603,360.00167 L212.218603,360.00167 Z M223,254 C194.788109,254 171.448756,274.861818 167.567063,302.000334 L167.567063,302.000334 L198.253822,302.000543 C201.627886,291.555206 211.431636,284 223,284 C234.568364,284 244.372114,291.555206 247.746178,302.000543 L247.746178,302.000543 L278.432937,302.000334 C274.551244,274.861818 251.211891,254 223,254 Z M377,254 C348.788109,254 325.448756,274.861818 321.567063,302.000334 L321.567063,302.000334 L352.253822,302.000543 C355.627886,291.555206 365.431636,284 377,284 C388.568364,284 398.372114,291.555206 401.746178,302.000543 L401.746178,302.000543 L432.432937,302.000334 C428.551244,274.861818 405.211891,254 377,254 Z M444,120 C463.882251,120 480,136.117749 480,156 L480,200 L120,200 L120,156 C120,136.117749 136.117749,120 156,120 L444,120 Z" id="mask-icon--book--black" fill="#FFFFFF"></path>
        </g>
        <path d="M536.856531,758 C561.33833,758 589.147752,767.512671 590.811563,797.953216 L556.584582,797.953216 C555.87152,789.153996 547.79015,785.111111 537.094218,785.111111 C527.111349,785.111111 522.595289,788.916179 522.595289,793.434698 C522.595289,797.239766 525.447537,800.807018 534.479657,802.471735 L556.109208,806.038986 C577.738758,810.081871 592,820.545809 592,840.998051 C592,867.633528 567.993576,880 538.044968,880 C507.858672,880 483.376874,867.395712 481,836.717349 L515.226981,836.955166 C516.890792,846.94347 525.20985,851.461988 537.331906,851.461988 C547.552463,851.461988 553.732334,848.37037 553.732334,843.376218 C553.732334,839.57115 550.167024,836.479532 542.561028,835.290448 L519.267666,831.247563 C499.301927,827.918129 485.51606,816.740741 485.51606,796.526316 C485.51606,772.269006 506.194861,758 536.856531,758 Z M393.102612,759 C405.660448,759 416.085821,762.320158 424.615672,767.774704 L424.615672,761.608696 L463,761.608696 L463,876.628458 L424.615672,876.628458 L424.615672,870.225296 C416.085821,875.679842 405.660448,879 393.102612,879 C362.063433,879 336,853.150198 336,819 C336,784.612648 362.063433,759 393.102612,759 Z M168.632153,715 L226,800.945588 L283.13079,715 L313,715 L313,876 L272.93733,876 L272.93733,795.263235 L237.141689,850.429412 L237.141689,850.666176 L214.858311,850.666176 L214.858311,850.429412 L178.825613,794.789706 L179.06267,876 L139,876 L139,715 L168.632153,715 Z M651.4,708 L651.4,804.304225 L691.459259,761.239437 L737.207407,761.239437 L693.592593,808.090141 L741,876 L695.014815,876 L667.518519,836.247887 L651.4,853.521127 L651.4,876 L613,876 L613,708 L651.4,708 Z M400.684701,790.304348 C385.046642,790.304348 373.673507,803.110672 373.673507,819 C373.673507,834.889328 385.046642,847.458498 400.684701,847.458498 C409.214552,847.458498 417.507463,845.086957 424.615672,836.786561 L424.615672,801.213439 C417.507463,792.913043 409.214552,790.304348 400.684701,790.304348 Z" id="形状结合" fill="#1C68F3" fill-rule="nonzero"></path>
    </g>
</svg>
