<svg fill="none" height="660" viewBox="0 0 1736 660" width="1736" xmlns="http://www.w3.org/2000/svg"><path d="m330 645c173.97 0 315-141.03 315-315s-141.03-315-315-315-315 141.03-315 315 141.03 315 315 315z" stroke="#fff" stroke-width="30"/><g fill="#fff"><path clip-rule="evenodd" d="m510 260v100h-300v.001h-12.907c13.661 60.676 67.877 105.999 132.68 105.999 53.574 0 99.913-30.978 122.082-75.998l58.145-.001v83.999c0 19.882-16.118 36-36 36h-288c-19.882 0-36-16.118-36-36v-214zm-92.673 130.002c-19.092 27.912-51.184 46.23-87.554 46.23-36.371 0-68.463-18.318-87.554-46.23zm-164.327-106.002c-28.212 0-51.551 20.862-55.433 48l30.687.001c3.374-10.446 13.178-18.001 24.746-18.001s21.372 7.555 24.746 18.001l30.687-.001c-3.882-27.138-27.221-48-55.433-48zm154 0c-28.212 0-51.551 20.862-55.433 48l30.687.001c3.374-10.446 13.178-18.001 24.746-18.001s21.372 7.555 24.746 18.001l30.687-.001c-3.882-27.138-27.221-48-55.433-48zm67-134c19.882 0 36 16.118 36 36v44h-360v-44c0-19.882 16.118-36 36-36z" fill-rule="evenodd"/><path d="m1408.12 270.629c39.2 0 83.72 15.647 86.39 65.717h-54.8c-1.14-14.473-14.08-21.123-31.21-21.123-15.98 0-23.21 6.258-23.21 13.691 0 6.258 4.57 12.126 19.03 14.864l34.63 5.868c34.63 6.65 57.46 23.861 57.46 57.502 0 43.811-38.44 64.152-86.39 64.152-48.32 0-87.52-20.732-91.33-71.193l54.8.391c2.67 16.429 15.99 23.861 35.39 23.861 16.37 0 26.26-5.085 26.26-13.299 0-6.259-5.71-11.344-17.89-13.3l-37.29-6.65c-31.96-5.477-54.04-23.862-54.04-57.111 0-39.9 33.11-63.37 82.2-63.37zm-230.99.738c20.13 0 36.85 5.47 50.52 14.458v-10.16h61.54v189.514h-61.54v-10.55c-13.67 8.987-30.39 14.458-50.52 14.458-49.77 0-91.55-42.592-91.55-98.86 0-56.659 41.78-98.86 91.55-98.86zm-360.466-72.301 92.278 142.174 91.898-142.174h48.04v266.332h-64.439v-133.558l-57.578 91.258v.392h-35.843v-.392l-57.96-92.041.382 134.341h-64.442v-266.332zm775.296-11.066v159.015l64.4-71.107h73.54l-70.11 77.359 76.21 112.131h-73.93l-44.2-65.638-25.91 28.521v37.117h-61.74v-277.398zm-402.67 134.946c-25.08 0-43.31 21.101-43.31 47.281s18.23 46.89 43.31 46.89c13.67 0 26.97-3.908 38.36-17.584v-58.612c-11.39-13.677-24.69-17.975-38.36-17.975z"/></g></svg>