<svg height="740" viewBox="0 0 740 740" width="740" xmlns="http://www.w3.org/2000/svg"><g fill="none" fill-rule="evenodd"><path d="m328.908582 635c10.975746 0 20.087687 2.905138 27.542911 7.677866v-5.395257h33.548507v100.642292h-33.548507v-5.602767c-7.455224 4.772728-16.567165 7.677866-27.542911 7.677866-27.128731 0-49.908582-22.618577-49.908582-52.5 0-30.088933 22.779851-52.5 49.908582-52.5zm125.902981-1c21.394004 0 45.695932 8.265107 47.149893 34.71345h-29.910064c-.623126-7.645224-7.685225-11.157894-17.03212-11.157894-8.723769 0-12.670236 3.306042-12.670236 7.231968 0 3.306043 2.492506 6.405458 10.385439 7.851852l18.901499 3.099415c18.901499 3.512671 31.364026 12.604289 31.364026 30.374269 0 23.142301-20.978587 33.88694-47.149893 33.88694-26.379015 0-47.773019-10.951267-49.850107-37.606238l29.910064.206628c1.453962 8.678362 8.723769 12.604288 19.316917 12.604288 8.931477 0 14.331906-2.686159 14.331906-7.025341 0-3.306043-3.115632-5.992202-9.762313-7.025341l-20.355461-3.51267c-17.447537-2.892788-29.494646-12.604289-29.494646-30.167642 0-21.076023 18.070664-33.473684 44.865096-33.473684zm-320.926004-38 50.114441 75.269118 49.907357-75.269118h26.092643v141h-34.997275v-70.707353l-31.269755 48.313235v.207353h-19.46594v-.207353l-31.476839-48.727941.207084 71.122059h-34.997275v-141zm419.714441-6v84.266197l35.051852-37.68169h40.029629l-38.162962 40.994366 41.481481 59.421127h-40.237037l-24.059259-34.783099-14.103704 15.114085v19.669014h-33.6v-147zm-218.064552 72.391304c-13.667911 0-23.608209 11.205534-23.608209 25.108696s9.940298 24.901186 23.608209 24.901186c7.455224 0 14.703358-2.075099 20.916045-9.337945v-31.126482c-6.212687-7.262846-13.460821-9.545455-20.916045-9.545455z" fill="#fff" fill-rule="nonzero"/><g transform="translate(120 30)"><rect fill="#1c68f3" height="530" rx="50" stroke="#fff" stroke-width="30" width="530" x="-15" y="-15"/><path d="m430 180v100h-300v.001l-12.907363.000293c13.6612 60.675936 67.877706 105.998707 132.679911 105.998707 53.574191 0 99.91317-30.977625 122.082198-75.998136l58.145254-.000864v83.999c0 19.882251-16.117749 36-36 36h-288c-19.882251 0-36-16.117749-36-36v-214zm-92.673507 130.00167c-19.091757 27.912627-51.183733 46.229933-87.553945 46.229933s-68.462188-18.317306-87.553945-46.229933zm-164.326493-106.00167c-28.211891 0-51.551244 20.861818-55.432937 48.000334l30.686759.000209c3.374064-10.445337 13.177814-18.000543 24.746178-18.000543s21.372114 7.555206 24.746178 18.000543l30.686759-.000209c-3.881693-27.138516-27.221046-48.000334-55.432937-48.000334zm154 0c-28.211891 0-51.551244 20.861818-55.432937 48.000334l30.686759.000209c3.374064-10.445337 13.177814-18.000543 24.746178-18.000543s21.372114 7.555206 24.746178 18.000543l30.686759-.000209c-3.881693-27.138516-27.221046-48.000334-55.432937-48.000334zm67-134c19.882251 0 36 16.117749 36 36v44h-360v-44c0-19.882251 16.117749-36 36-36z" fill="#fff"/></g></g></svg>