<?xml version="1.0" encoding="UTF-8"?>
<svg width="700px" height="700px" viewBox="0 0 700 700" version="1.1" xmlns="http://www.w3.org/2000/svg" xmlns:xlink="http://www.w3.org/1999/xlink">
    <!-- Generator: Sketch 57.1 (83088) - https://sketch.com -->
    <title>MB--Logo--CombV-Squircle--Black</title>
    <desc>Created with Sketch.</desc>
    <defs>
        <path d="M430,180 L430,280 L130,280 L130,280.001 L117.092637,280.001293 C130.753837,340.677229 184.970343,386 249.772548,386 C303.346739,386 349.685718,355.022375 371.854746,310.001864 L371.854746,310.001864 L430,310.001 L430,394 C430,413.882251 413.882251,430 394,430 L106,430 C86.117749,430 70,413.882251 70,394 L70,180 L430,180 Z M337.326493,310.00167 C318.234736,337.914297 286.14276,356.231603 249.772548,356.231603 C213.402336,356.231603 181.31036,337.914297 162.218603,310.00167 L162.218603,310.00167 Z M173,204 C144.788109,204 121.448756,224.861818 117.567063,252.000334 L117.567063,252.000334 L148.253822,252.000543 C151.627886,241.555206 161.431636,234 173,234 C184.568364,234 194.372114,241.555206 197.746178,252.000543 L197.746178,252.000543 L228.432937,252.000334 C224.551244,224.861818 201.211891,204 173,204 Z M327,204 C298.788109,204 275.448756,224.861818 271.567063,252.000334 L271.567063,252.000334 L302.253822,252.000543 C305.627886,241.555206 315.431636,234 327,234 C338.568364,234 348.372114,241.555206 351.746178,252.000543 L351.746178,252.000543 L382.432937,252.000334 C378.551244,224.861818 355.211891,204 327,204 Z M394,70 C413.882251,70 430,86.117749 430,106 L430,150 L70,150 L70,106 C70,86.117749 86.117749,70 106,70 L394,70 Z" id="path-1"></path>
    </defs>
    <g id="MB--Logo--CombV-Squircle--Black" stroke="none" stroke-width="1" fill="none" fill-rule="evenodd">
        <path d="M105.264,606.76 L114.224,606.76 L114.224,697 L95.792,697 L95.792,647.08 L67.888,686.248 L39.856,647.08 L39.856,697 L21.552,697 L21.552,606.76 L30.512,606.76 L67.888,658.472 L105.264,606.76 Z M183.6,627.496 L201.392,627.496 L201.392,697 L183.6,697 L183.6,691.88 C177.84,695.72 170.928,698.024 163.248,698.024 C141.488,698.024 128.688,680.488 128.688,662.056 C128.688,643.496 141.488,626.088 163.248,626.088 C170.544,626.088 177.712,628.392 183.6,631.848 L183.6,627.496 Z M183.6,676.136 L183.6,648.232 C179.248,644.52 173.104,642.216 166.448,642.216 C153.776,642.216 145.84,651.688 145.84,662.056 C145.84,672.552 153.904,682.024 166.448,682.024 C173.232,682.024 179.248,679.848 183.6,676.136 Z M213.552,691.368 L220.208,678.184 C228.784,681.896 235.312,683.816 244.016,683.816 C252.208,683.816 255.408,680.744 255.408,677.16 C255.408,673.192 251.44,671.4 240.688,669.096 C225.712,665.768 214.832,660.904 214.832,647.464 C214.832,634.92 225.2,626.216 241.328,626.216 C252.208,626.216 260.912,628.776 268.464,631.848 L262.576,644.904 C255.792,642.344 247.856,640.424 240.944,640.424 C234.16,640.424 230.704,642.856 230.704,646.568 C230.704,650.408 234.928,652.2 246.064,654.504 C262.192,657.832 271.536,663.464 271.536,676.136 C271.536,689.32 261.424,698.024 243.632,698.024 C231.6,698.024 223.792,696.36 213.552,691.368 Z M327.088,654.632 L352.816,697 L333.104,697 L315.312,668.584 L301.872,681.512 L301.872,697 L284.08,697 L284.08,600.488 L301.872,600.488 L301.872,657.32 L331.568,627.496 L352.432,627.496 L327.088,654.632 Z M399.664,626.216 C419.12,626.216 434.864,640.424 434.864,662.184 C434.864,683.56 419.12,698.152 399.664,698.152 C392.368,698.152 385.2,696.104 379.44,692.648 L379.44,697 L361.648,697 L361.648,600.488 L379.44,600.488 L379.44,631.464 C385.328,628.264 392.24,626.216 399.664,626.216 Z M396.464,682.024 C408.496,682.024 417.328,673.96 417.328,662.184 C417.328,650.792 408.496,642.216 396.464,642.216 C389.68,642.216 383.792,644.52 379.44,648.104 L379.44,676.008 C383.792,679.72 389.808,682.024 396.464,682.024 Z M482.224,626.216 C503.216,626.216 520.24,642.216 520.24,662.184 C520.24,682.024 503.216,698.024 482.224,698.024 C461.232,698.024 444.208,682.024 444.208,662.184 C444.208,642.216 461.232,626.216 482.224,626.216 Z M482.224,682.024 C493.616,682.024 502.704,673.064 502.704,662.184 C502.704,651.176 493.616,642.216 482.224,642.216 C470.96,642.216 461.744,651.176 461.744,662.184 C461.744,673.064 470.96,682.024 482.224,682.024 Z M567.472,626.216 C588.464,626.216 605.488,642.216 605.488,662.184 C605.488,682.024 588.464,698.024 567.472,698.024 C546.48,698.024 529.456,682.024 529.456,662.184 C529.456,642.216 546.48,626.216 567.472,626.216 Z M567.472,682.024 C578.864,682.024 587.952,673.064 587.952,662.184 C587.952,651.176 578.864,642.216 567.472,642.216 C556.208,642.216 546.992,651.176 546.992,662.184 C546.992,673.064 556.208,682.024 567.472,682.024 Z M661.296,654.632 L687.024,697 L667.312,697 L649.52,668.584 L636.08,681.512 L636.08,697 L618.288,697 L618.288,600.488 L636.08,600.488 L636.08,657.32 L665.776,627.496 L686.64,627.496 L661.296,654.632 Z" id="Maskbook" fill="#000000" fill-rule="nonzero"></path>
        <g id="Group" transform="translate(100.000000, 30.000000)">
            <rect id="Rectangle" fill="#000000" x="0" y="0" width="500" height="500" rx="50"></rect>
            <mask id="mask-2" fill="white">
                <use xlink:href="#path-1"></use>
            </mask>
            <use id="MB--Bare--White" fill="#FFFFFF" xlink:href="#path-1"></use>
        </g>
    </g>
</svg>