<?xml version="1.0" encoding="UTF-8"?>
<svg width="2750px" height="660px" viewBox="0 0 2750 660" version="1.1" xmlns="http://www.w3.org/2000/svg" xmlns:xlink="http://www.w3.org/1999/xlink">
    <!-- Generator: Sketch 57.1 (83088) - https://sketch.com -->
    <title>MB--Logo--CombH-Circle--Blue</title>
    <desc>Created with Sketch.</desc>
    <g id="MB--Logo--CombH-Circle--Blue" stroke="none" stroke-width="1" fill="none" fill-rule="evenodd">
        <path d="M1041.72,205.6 L1041.72,464 L977.5,464 L977.5,334.42 L920.12,422.96 L920.12,423.34 L884.4,423.34 L884.4,422.96 L826.64,333.66 L827.02,464 L762.8,464 L762.8,205.6 L810.3,205.6 L902.26,343.54 L993.84,205.6 L1041.72,205.6 Z M1280.74,279.7 L1280.74,464 L1219.18,464 L1219.18,453.74 C1205.5,462.48 1188.78,467.8 1168.64,467.8 C1118.86,467.8 1077.06,426.38 1077.06,371.66 C1077.06,316.56 1118.86,275.52 1168.64,275.52 C1188.78,275.52 1205.5,280.84 1219.18,289.58 L1219.18,279.7 L1280.74,279.7 Z M1180.8,417.26 C1194.48,417.26 1207.78,413.46 1219.18,400.16 L1219.18,343.16 C1207.78,329.86 1194.48,325.68 1180.8,325.68 C1155.72,325.68 1137.48,346.2 1137.48,371.66 C1137.48,397.12 1155.72,417.26 1180.8,417.26 Z M1310,400.54 L1364.72,400.92 C1367.38,416.88 1380.68,424.1 1400.06,424.1 C1416.4,424.1 1426.28,419.16 1426.28,411.18 C1426.28,405.1 1420.58,400.16 1408.42,398.26 L1371.18,391.8 C1339.26,386.48 1317.22,368.62 1317.22,336.32 C1317.22,297.56 1350.28,274.76 1399.3,274.76 C1438.44,274.76 1482.9,289.96 1485.56,338.6 L1430.84,338.6 C1429.7,324.54 1416.78,318.08 1399.68,318.08 C1383.72,318.08 1376.5,324.16 1376.5,331.38 C1376.5,337.46 1381.06,343.16 1395.5,345.82 L1430.08,351.52 C1464.66,357.98 1487.46,374.7 1487.46,407.38 C1487.46,449.94 1449.08,469.7 1401.2,469.7 C1352.94,469.7 1313.8,449.56 1310,400.54 Z M1607.92,400.16 L1582.08,427.9 L1582.08,464 L1520.52,464 L1520.52,194.2 L1582.08,194.2 L1582.08,348.86 L1646.3,279.7 L1719.64,279.7 L1649.72,354.94 L1725.72,464 L1652,464 L1607.92,400.16 Z M1859.86,276.28 C1909.64,276.28 1951.44,317.32 1951.44,372.04 C1951.44,427.14 1909.64,468.56 1859.86,468.56 C1839.72,468.56 1823,463.24 1809.32,454.5 L1809.32,464 L1747.76,464 L1747.76,194.2 L1809.32,194.2 L1809.32,290.34 C1823,281.6 1839.72,276.28 1859.86,276.28 Z M1847.7,418.02 C1872.78,418.02 1891.02,397.88 1891.02,372.04 C1891.02,346.96 1872.78,326.44 1847.7,326.44 C1834.02,326.44 1820.72,330.62 1809.32,343.92 L1809.32,400.92 C1820.72,414.22 1834.02,418.02 1847.7,418.02 Z M2076.46,275.52 C2134.6,275.52 2176.4,316.18 2176.4,371.66 C2176.4,427.9 2134.6,469.7 2076.46,469.7 C2018.32,469.7 1976.52,427.9 1976.52,371.66 C1976.52,316.18 2018.32,275.52 2076.46,275.52 Z M2076.84,416.5 C2101.54,416.5 2118.26,396.74 2118.26,372.04 C2118.26,348.1 2101.54,328.72 2076.84,328.72 C2051.76,328.72 2035.04,348.1 2035.04,372.04 C2035.04,396.74 2051.76,416.5 2076.84,416.5 Z M2301.8,275.52 C2359.94,275.52 2401.74,316.18 2401.74,371.66 C2401.74,427.9 2359.94,469.7 2301.8,469.7 C2243.66,469.7 2201.86,427.9 2201.86,371.66 C2201.86,316.18 2243.66,275.52 2301.8,275.52 Z M2302.18,416.5 C2326.88,416.5 2343.6,396.74 2343.6,372.04 C2343.6,348.1 2326.88,328.72 2302.18,328.72 C2277.1,328.72 2260.38,348.1 2260.38,372.04 C2260.38,396.74 2277.1,416.5 2302.18,416.5 Z M2521.82,400.16 L2495.98,427.9 L2495.98,464 L2434.42,464 L2434.42,194.2 L2495.98,194.2 L2495.98,348.86 L2560.2,279.7 L2633.54,279.7 L2563.62,354.94 L2639.62,464 L2565.9,464 L2521.82,400.16 Z" id="Maskbook" fill="#1C68F3" fill-rule="nonzero"></path>
        <g id="Group" transform="translate(30.000000, 30.000000)">
            <circle id="Oval" fill="#1C68F3" cx="300" cy="300" r="300"></circle>
            <path d="M480,230 L480,330 L180,330 L180,330.001 L167.092637,330.001293 C180.753837,390.677229 234.970343,436 299.772548,436 C353.346739,436 399.685718,405.022375 421.854746,360.001864 L421.854746,360.001864 L480,360.001 L480,444 C480,463.882251 463.882251,480 444,480 L156,480 C136.117749,480 120,463.882251 120,444 L120,230 L480,230 Z M387.326493,360.00167 C368.234736,387.914297 336.14276,406.231603 299.772548,406.231603 C263.402336,406.231603 231.31036,387.914297 212.218603,360.00167 L212.218603,360.00167 Z M223,254 C194.788109,254 171.448756,274.861818 167.567063,302.000334 L167.567063,302.000334 L198.253822,302.000543 C201.627886,291.555206 211.431636,284 223,284 C234.568364,284 244.372114,291.555206 247.746178,302.000543 L247.746178,302.000543 L278.432937,302.000334 C274.551244,274.861818 251.211891,254 223,254 Z M377,254 C348.788109,254 325.448756,274.861818 321.567063,302.000334 L321.567063,302.000334 L352.253822,302.000543 C355.627886,291.555206 365.431636,284 377,284 C388.568364,284 398.372114,291.555206 401.746178,302.000543 L401.746178,302.000543 L432.432937,302.000334 C428.551244,274.861818 405.211891,254 377,254 Z M444,120 C463.882251,120 480,136.117749 480,156 L480,200 L120,200 L120,156 C120,136.117749 136.117749,120 156,120 L444,120 Z" id="maskbook-icon--book--black" fill="#FFFFFF"></path>
        </g>
    </g>
</svg>