<?xml version="1.0" encoding="UTF-8"?>
<svg width="880px" height="880px" viewBox="0 0 880 880" version="1.1" xmlns="http://www.w3.org/2000/svg" xmlns:xlink="http://www.w3.org/1999/xlink">
    <!-- Generator: Sketch 57.1 (83088) - https://sketch.com -->
    <title>MB--Logo--CombV-Circle--Black</title>
    <desc>Created with Sketch.</desc>
    <g id="MB--Logo--CombV-Circle--Black" stroke="none" stroke-width="1" fill="none" fill-rule="evenodd">
        <path d="M177.122,768.28 L177.122,873 L151.096,873 L151.096,820.486 L127.842,856.368 L127.842,856.522 L113.366,856.522 L113.366,856.368 L89.958,820.178 L90.112,873 L64.086,873 L64.086,768.28 L83.336,768.28 L120.604,824.182 L157.718,768.28 L177.122,768.28 Z M273.988,798.31 L273.988,873 L249.04,873 L249.04,868.842 C243.496,872.384 236.72,874.54 228.558,874.54 C208.384,874.54 191.444,857.754 191.444,835.578 C191.444,813.248 208.384,796.616 228.558,796.616 C236.72,796.616 243.496,798.772 249.04,802.314 L249.04,798.31 L273.988,798.31 Z M233.486,854.058 C239.03,854.058 244.42,852.518 249.04,847.128 L249.04,824.028 C244.42,818.638 239.03,816.944 233.486,816.944 C223.322,816.944 215.93,825.26 215.93,835.578 C215.93,845.896 223.322,854.058 233.486,854.058 Z M285.846,847.282 L308.022,847.436 C309.1,853.904 314.49,856.83 322.344,856.83 C328.966,856.83 332.97,854.828 332.97,851.594 C332.97,849.13 330.66,847.128 325.732,846.358 L310.64,843.74 C297.704,841.584 288.772,834.346 288.772,821.256 C288.772,805.548 302.17,796.308 322.036,796.308 C337.898,796.308 355.916,802.468 356.994,822.18 L334.818,822.18 C334.356,816.482 329.12,813.864 322.19,813.864 C315.722,813.864 312.796,816.328 312.796,819.254 C312.796,821.718 314.644,824.028 320.496,825.106 L334.51,827.416 C348.524,830.034 357.764,836.81 357.764,850.054 C357.764,867.302 342.21,875.31 322.806,875.31 C303.248,875.31 287.386,867.148 285.846,847.282 Z M406.582,847.128 L396.11,858.37 L396.11,873 L371.162,873 L371.162,763.66 L396.11,763.66 L396.11,826.338 L422.136,798.31 L451.858,798.31 L423.522,828.802 L454.322,873 L424.446,873 L406.582,847.128 Z M508.684,796.924 C528.858,796.924 545.798,813.556 545.798,835.732 C545.798,858.062 528.858,874.848 508.684,874.848 C500.522,874.848 493.746,872.692 488.202,869.15 L488.202,873 L463.254,873 L463.254,763.66 L488.202,763.66 L488.202,802.622 C493.746,799.08 500.522,796.924 508.684,796.924 Z M503.756,854.366 C513.92,854.366 521.312,846.204 521.312,835.732 C521.312,825.568 513.92,817.252 503.756,817.252 C498.212,817.252 492.822,818.946 488.202,824.336 L488.202,847.436 C492.822,852.826 498.212,854.366 503.756,854.366 Z M596.464,796.616 C620.026,796.616 636.966,813.094 636.966,835.578 C636.966,858.37 620.026,875.31 596.464,875.31 C572.902,875.31 555.962,858.37 555.962,835.578 C555.962,813.094 572.902,796.616 596.464,796.616 Z M596.618,853.75 C606.628,853.75 613.404,845.742 613.404,835.732 C613.404,826.03 606.628,818.176 596.618,818.176 C586.454,818.176 579.678,826.03 579.678,835.732 C579.678,845.742 586.454,853.75 596.618,853.75 Z M687.786,796.616 C711.348,796.616 728.288,813.094 728.288,835.578 C728.288,858.37 711.348,875.31 687.786,875.31 C664.224,875.31 647.284,858.37 647.284,835.578 C647.284,813.094 664.224,796.616 687.786,796.616 Z M687.94,853.75 C697.95,853.75 704.726,845.742 704.726,835.732 C704.726,826.03 697.95,818.176 687.94,818.176 C677.776,818.176 671,826.03 671,835.732 C671,845.742 677.776,853.75 687.94,853.75 Z M776.952,847.128 L766.48,858.37 L766.48,873 L741.532,873 L741.532,763.66 L766.48,763.66 L766.48,826.338 L792.506,798.31 L822.228,798.31 L793.892,828.802 L824.692,873 L794.816,873 L776.952,847.128 Z" id="Maskbook" fill="#000000" fill-rule="nonzero"></path>
        <g id="Group" transform="translate(140.000000, 30.000000)">
            <circle id="Oval" fill="#000000" cx="300" cy="300" r="300"></circle>
            <path d="M480,230 L480,330 L180,330 L180,330.001 L167.092637,330.001293 C180.753837,390.677229 234.970343,436 299.772548,436 C353.346739,436 399.685718,405.022375 421.854746,360.001864 L421.854746,360.001864 L480,360.001 L480,444 C480,463.882251 463.882251,480 444,480 L156,480 C136.117749,480 120,463.882251 120,444 L120,230 L480,230 Z M387.326493,360.00167 C368.234736,387.914297 336.14276,406.231603 299.772548,406.231603 C263.402336,406.231603 231.31036,387.914297 212.218603,360.00167 L212.218603,360.00167 Z M223,254 C194.788109,254 171.448756,274.861818 167.567063,302.000334 L167.567063,302.000334 L198.253822,302.000543 C201.627886,291.555206 211.431636,284 223,284 C234.568364,284 244.372114,291.555206 247.746178,302.000543 L247.746178,302.000543 L278.432937,302.000334 C274.551244,274.861818 251.211891,254 223,254 Z M377,254 C348.788109,254 325.448756,274.861818 321.567063,302.000334 L321.567063,302.000334 L352.253822,302.000543 C355.627886,291.555206 365.431636,284 377,284 C388.568364,284 398.372114,291.555206 401.746178,302.000543 L401.746178,302.000543 L432.432937,302.000334 C428.551244,274.861818 405.211891,254 377,254 Z M444,120 C463.882251,120 480,136.117749 480,156 L480,200 L120,200 L120,156 C120,136.117749 136.117749,120 156,120 L444,120 Z" id="maskbook-icon--book--black" fill="#FFFFFF"></path>
        </g>
    </g>
</svg>