<svg height="560" viewBox="0 0 2680 560" width="2680" xmlns="http://www.w3.org/2000/svg"><g fill="none" fill-rule="evenodd"><path d="m916.26 146.1h26.6v267.9h-54.72v-148.2l-82.84 116.28-83.22-116.28v148.2h-54.34v-267.9h26.6l110.96 153.52zm232.56 61.56h52.82v206.34h-52.82v-15.2c-17.1 11.4-37.62 18.24-60.42 18.24-64.6 0-102.6-52.06-102.6-106.78 0-55.1 38-106.78 102.6-106.78 21.66 0 42.94 6.84 60.42 17.1zm0 144.4v-82.84c-12.92-11.02-31.16-17.86-50.92-17.86-37.62 0-61.18 28.12-61.18 58.9 0 31.16 23.94 59.28 61.18 59.28 20.14 0 38-6.46 50.92-17.48zm88.92 45.22 19.76-39.14c25.46 11.02 44.84 16.72 70.68 16.72 24.32 0 33.82-9.12 33.82-19.76 0-11.78-11.78-17.1-43.7-23.94-44.46-9.88-76.76-24.32-76.76-64.22 0-37.24 30.78-63.08 78.66-63.08 32.3 0 58.14 7.6 80.56 16.72l-17.48 38.76c-20.14-7.6-43.7-13.3-64.22-13.3-20.14 0-30.4 7.22-30.4 18.24 0 11.4 12.54 16.72 45.6 23.56 47.88 9.88 75.62 26.6 75.62 64.22 0 39.14-30.02 64.98-82.84 64.98-35.72 0-58.9-4.94-89.3-19.76zm337.06-109.06 76.38 125.78h-58.52l-52.82-84.36-39.9 38.38v45.98h-52.82v-286.52h52.82v168.72l88.16-88.54h61.94zm215.46-84.36c57.76 0 104.5 42.18 104.5 106.78 0 63.46-46.74 106.78-104.5 106.78-21.66 0-42.94-6.08-60.04-16.34v12.92h-52.82v-286.52h52.82v91.96c17.48-9.5 38-15.58 60.04-15.58zm-9.5 165.68c35.72 0 61.94-23.94 61.94-58.9 0-33.82-26.22-59.28-61.94-59.28-20.14 0-37.62 6.84-50.54 17.48v82.84c12.92 11.02 30.78 17.86 50.54 17.86zm254.6-165.68c62.32 0 112.86 47.5 112.86 106.78 0 58.9-50.54 106.4-112.86 106.4s-112.86-47.5-112.86-106.4c0-59.28 50.54-106.78 112.86-106.78zm0 165.68c33.82 0 60.8-26.6 60.8-58.9 0-32.68-26.98-59.28-60.8-59.28-33.44 0-60.8 26.6-60.8 59.28 0 32.3 27.36 58.9 60.8 58.9zm253.08-165.68c62.32 0 112.86 47.5 112.86 106.78 0 58.9-50.54 106.4-112.86 106.4s-112.86-47.5-112.86-106.4c0-59.28 50.54-106.78 112.86-106.78zm0 165.68c33.82 0 60.8-26.6 60.8-58.9 0-32.68-26.98-59.28-60.8-59.28-33.44 0-60.8 26.6-60.8 59.28 0 32.3 27.36 58.9 60.8 58.9zm278.54-81.32 76.38 125.78h-58.52l-52.82-84.36-39.9 38.38v45.98h-52.82v-286.52h52.82v168.72l88.16-88.54h61.94z" fill="#1c68f3" fill-rule="nonzero"/><g transform="translate(30 30)"><rect fill="#1c68f3" height="500" rx="50" width="500"/><path d="m430 180v100h-300v.001l-12.907363.000293c13.6612 60.675936 67.877706 105.998707 132.679911 105.998707 53.574191 0 99.91317-30.977625 122.082198-75.998136l58.145254-.000864v83.999c0 19.882251-16.117749 36-36 36h-288c-19.882251 0-36-16.117749-36-36v-214zm-92.673507 130.00167c-19.091757 27.912627-51.183733 46.229933-87.553945 46.229933s-68.462188-18.317306-87.553945-46.229933zm-164.326493-106.00167c-28.211891 0-51.551244 20.861818-55.432937 48.000334l30.686759.000209c3.374064-10.445337 13.177814-18.000543 24.746178-18.000543s21.372114 7.555206 24.746178 18.000543l30.686759-.000209c-3.881693-27.138516-27.221046-48.000334-55.432937-48.000334zm154 0c-28.211891 0-51.551244 20.861818-55.432937 48.000334l30.686759.000209c3.374064-10.445337 13.177814-18.000543 24.746178-18.000543s21.372114 7.555206 24.746178 18.000543l30.686759-.000209c-3.881693-27.138516-27.221046-48.000334-55.432937-48.000334zm67-134c19.882251 0 36 16.117749 36 36v44h-360v-44c0-19.882251 16.117749-36 36-36z" fill="#fff"/></g></g></svg>