<svg width="660" height="660" viewBox="0 0 660 660" fill="none" xmlns="http://www.w3.org/2000/svg">
<path d="M330 645C503.97 645 645 503.97 645 330C645 156.03 503.97 15 330 15C156.03 15 15 156.03 15 330C15 503.97 156.03 645 330 645Z" stroke="white" stroke-width="30"/>
<path fill-rule="evenodd" clip-rule="evenodd" d="M510 260V360H210V360.001L197.093 360.001C210.754 420.677 264.97 466 329.773 466C383.347 466 429.686 435.022 451.855 390.002L510 390.001V474C510 493.882 493.882 510 474 510H186C166.118 510 150 493.882 150 474V260H510ZM417.327 390.002C398.235 417.914 366.143 436.232 329.773 436.232C293.402 436.232 261.31 417.914 242.219 390.002H417.327ZM253 284C224.788 284 201.449 304.862 197.567 332L228.254 332.001C231.628 321.555 241.432 314 253 314C264.568 314 274.372 321.555 277.746 332.001L308.433 332C304.551 304.862 281.212 284 253 284ZM407 284C378.788 284 355.449 304.862 351.567 332L382.254 332.001C385.628 321.555 395.432 314 407 314C418.568 314 428.372 321.555 431.746 332.001L462.433 332C458.551 304.862 435.212 284 407 284ZM474 150C493.882 150 510 166.118 510 186V230H150V186C150 166.118 166.118 150 186 150H474Z" fill="white"/>
</svg>
