<?xml version="1.0" encoding="UTF-8"?>
<svg width="740px" height="740px" viewBox="0 0 740 740" version="1.1" xmlns="http://www.w3.org/2000/svg" xmlns:xlink="http://www.w3.org/1999/xlink">
    <!-- Generator: Sketch 57.1 (83088) - https://sketch.com -->
    <title>MB--Logo--CombV-Squircle--Black</title>
    <desc>Created with Sketch.</desc>
    <defs>
        <path d="M430,180 L430,280 L130,280 L130,280.001 L117.092637,280.001293 C130.753837,340.677229 184.970343,386 249.772548,386 C303.346739,386 349.685718,355.022375 371.854746,310.001864 L371.854746,310.001864 L430,310.001 L430,394 C430,413.882251 413.882251,430 394,430 L106,430 C86.117749,430 70,413.882251 70,394 L70,180 L430,180 Z M337.326493,310.00167 C318.234736,337.914297 286.14276,356.231603 249.772548,356.231603 C213.402336,356.231603 181.31036,337.914297 162.218603,310.00167 L162.218603,310.00167 Z M173,204 C144.788109,204 121.448756,224.861818 117.567063,252.000334 L117.567063,252.000334 L148.253822,252.000543 C151.627886,241.555206 161.431636,234 173,234 C184.568364,234 194.372114,241.555206 197.746178,252.000543 L197.746178,252.000543 L228.432937,252.000334 C224.551244,224.861818 201.211891,204 173,204 Z M327,204 C298.788109,204 275.448756,224.861818 271.567063,252.000334 L271.567063,252.000334 L302.253822,252.000543 C305.627886,241.555206 315.431636,234 327,234 C338.568364,234 348.372114,241.555206 351.746178,252.000543 L351.746178,252.000543 L382.432937,252.000334 C378.551244,224.861818 355.211891,204 327,204 Z M394,70 C413.882251,70 430,86.117749 430,106 L430,150 L70,150 L70,106 C70,86.117749 86.117749,70 106,70 L394,70 Z" id="path-1"></path>
    </defs>
    <g id="MB--Logo--CombV-Squircle--Black" stroke="none" stroke-width="1" fill="none" fill-rule="evenodd">
        <path d="M151.504,643.96 L151.504,731 L129.872,731 L129.872,687.352 L110.544,717.176 L110.544,717.304 L98.512,717.304 L98.512,717.176 L79.056,687.096 L79.184,731 L57.552,731 L57.552,643.96 L73.552,643.96 L104.528,690.424 L135.376,643.96 L151.504,643.96 Z M232.016,668.92 L232.016,731 L211.28,731 L211.28,727.544 C206.672,730.488 201.04,732.28 194.256,732.28 C177.488,732.28 163.408,718.328 163.408,699.896 C163.408,681.336 177.488,667.512 194.256,667.512 C201.04,667.512 206.672,669.304 211.28,672.248 L211.28,668.92 L232.016,668.92 Z M198.352,715.256 C202.96,715.256 207.44,713.976 211.28,709.496 L211.28,690.296 C207.44,685.816 202.96,684.408 198.352,684.408 C189.904,684.408 183.76,691.32 183.76,699.896 C183.76,708.472 189.904,715.256 198.352,715.256 Z M241.872,709.624 L260.304,709.752 C261.2,715.128 265.68,717.56 272.208,717.56 C277.712,717.56 281.04,715.896 281.04,713.208 C281.04,711.16 279.12,709.496 275.024,708.856 L262.48,706.68 C251.728,704.888 244.304,698.872 244.304,687.992 C244.304,674.936 255.44,667.256 271.952,667.256 C285.136,667.256 300.112,672.376 301.008,688.76 L282.576,688.76 C282.192,684.024 277.84,681.848 272.08,681.848 C266.704,681.848 264.272,683.896 264.272,686.328 C264.272,688.376 265.808,690.296 270.672,691.192 L282.32,693.112 C293.968,695.288 301.648,700.92 301.648,711.928 C301.648,726.264 288.72,732.92 272.592,732.92 C256.336,732.92 243.152,726.136 241.872,709.624 Z M342.224,709.496 L333.52,718.84 L333.52,731 L312.784,731 L312.784,640.12 L333.52,640.12 L333.52,692.216 L355.152,668.92 L379.856,668.92 L356.304,694.264 L381.904,731 L357.072,731 L342.224,709.496 Z M427.088,667.768 C443.856,667.768 457.936,681.592 457.936,700.024 C457.936,718.584 443.856,732.536 427.088,732.536 C420.304,732.536 414.672,730.744 410.064,727.8 L410.064,731 L389.328,731 L389.328,640.12 L410.064,640.12 L410.064,672.504 C414.672,669.56 420.304,667.768 427.088,667.768 Z M422.992,715.512 C431.44,715.512 437.584,708.728 437.584,700.024 C437.584,691.576 431.44,684.664 422.992,684.664 C418.384,684.664 413.904,686.072 410.064,690.552 L410.064,709.752 C413.904,714.232 418.384,715.512 422.992,715.512 Z M500.048,667.512 C519.632,667.512 533.712,681.208 533.712,699.896 C533.712,718.84 519.632,732.92 500.048,732.92 C480.464,732.92 466.384,718.84 466.384,699.896 C466.384,681.208 480.464,667.512 500.048,667.512 Z M500.176,715 C508.496,715 514.128,708.344 514.128,700.024 C514.128,691.96 508.496,685.432 500.176,685.432 C491.728,685.432 486.096,691.96 486.096,700.024 C486.096,708.344 491.728,715 500.176,715 Z M575.952,667.512 C595.536,667.512 609.616,681.208 609.616,699.896 C609.616,718.84 595.536,732.92 575.952,732.92 C556.368,732.92 542.288,718.84 542.288,699.896 C542.288,681.208 556.368,667.512 575.952,667.512 Z M576.08,715 C584.4,715 590.032,708.344 590.032,700.024 C590.032,691.96 584.4,685.432 576.08,685.432 C567.632,685.432 562,691.96 562,700.024 C562,708.344 567.632,715 576.08,715 Z M650.064,709.496 L641.36,718.84 L641.36,731 L620.624,731 L620.624,640.12 L641.36,640.12 L641.36,692.216 L662.992,668.92 L687.696,668.92 L664.144,694.264 L689.744,731 L664.912,731 L650.064,709.496 Z" id="Maskbook" fill="#000000" fill-rule="nonzero"></path>
        <g id="Group" transform="translate(120.000000, 30.000000)">
            <rect id="Rectangle" fill="#000000" x="0" y="0" width="500" height="500" rx="50"></rect>
            <mask id="mask-2" fill="white">
                <use xlink:href="#path-1"></use>
            </mask>
            <use id="MB--Bare--White" fill="#FFFFFF" xlink:href="#path-1"></use>
        </g>
    </g>
</svg>