<?xml version="1.0" encoding="UTF-8"?>
<svg width="600px" height="600px" viewBox="0 0 600 600" version="1.1" xmlns="http://www.w3.org/2000/svg" xmlns:xlink="http://www.w3.org/1999/xlink">
    <!-- Generator: Sketch 57.1 (83088) - https://sketch.com -->
    <title>MB--CircleCanvas--WhiteOverBlue</title>
    <desc>Created with Sketch.</desc>
    <g id="MB--CircleCanvas--WhiteOverBlue" stroke="none" stroke-width="1" fill="none" fill-rule="evenodd">
        <g id="Group">
            <circle id="Oval" fill="#1C68F3" cx="300" cy="300" r="300"></circle>
            <path d="M480,230 L480,330 L180,330 L180,330.001 L167.092637,330.001293 C180.753837,390.677229 234.970343,436 299.772548,436 C353.346739,436 399.685718,405.022375 421.854746,360.001864 L421.854746,360.001864 L480,360.001 L480,444 C480,463.882251 463.882251,480 444,480 L156,480 C136.117749,480 120,463.882251 120,444 L120,230 L480,230 Z M387.326493,360.00167 C368.234736,387.914297 336.14276,406.231603 299.772548,406.231603 C263.402336,406.231603 231.31036,387.914297 212.218603,360.00167 L212.218603,360.00167 Z M223,254 C194.788109,254 171.448756,274.861818 167.567063,302.000334 L167.567063,302.000334 L198.253822,302.000543 C201.627886,291.555206 211.431636,284 223,284 C234.568364,284 244.372114,291.555206 247.746178,302.000543 L247.746178,302.000543 L278.432937,302.000334 C274.551244,274.861818 251.211891,254 223,254 Z M377,254 C348.788109,254 325.448756,274.861818 321.567063,302.000334 L321.567063,302.000334 L352.253822,302.000543 C355.627886,291.555206 365.431636,284 377,284 C388.568364,284 398.372114,291.555206 401.746178,302.000543 L401.746178,302.000543 L432.432937,302.000334 C428.551244,274.861818 405.211891,254 377,254 Z M444,120 C463.882251,120 480,136.117749 480,156 L480,200 L120,200 L120,156 C120,136.117749 136.117749,120 156,120 L444,120 Z" id="maskbook-icon--book--black" fill="#FFFFFF"></path>
        </g>
    </g>
</svg>