<?xml version="1.0" encoding="UTF-8"?>
<svg width="840px" height="840px" viewBox="0 0 840 840" version="1.1" xmlns="http://www.w3.org/2000/svg" xmlns:xlink="http://www.w3.org/1999/xlink">
    <!-- Generator: Sketch 57.1 (83088) - https://sketch.com -->
    <title>MB--Logo--CombV-Circle--Blue</title>
    <desc>Created with Sketch.</desc>
    <g id="MB--Logo--CombV-Circle--Blue" stroke="none" stroke-width="1" fill="none" fill-rule="evenodd">
        <path d="M125.552,724.43 L136.332,724.43 L136.332,833 L114.156,833 L114.156,772.94 L80.584,820.064 L46.858,772.94 L46.858,833 L24.836,833 L24.836,724.43 L35.616,724.43 L80.584,786.646 L125.552,724.43 Z M219.8,749.378 L241.206,749.378 L241.206,833 L219.8,833 L219.8,826.84 C212.87,831.46 204.554,834.232 195.314,834.232 C169.134,834.232 153.734,813.134 153.734,790.958 C153.734,768.628 169.134,747.684 195.314,747.684 C204.092,747.684 212.716,750.456 219.8,754.614 L219.8,749.378 Z M219.8,807.898 L219.8,774.326 C214.564,769.86 207.172,767.088 199.164,767.088 C183.918,767.088 174.37,778.484 174.37,790.958 C174.37,803.586 184.072,814.982 199.164,814.982 C207.326,814.982 214.564,812.364 219.8,807.898 Z M255.836,826.224 L263.844,810.362 C274.162,814.828 282.016,817.138 292.488,817.138 C302.344,817.138 306.194,813.442 306.194,809.13 C306.194,804.356 301.42,802.2 288.484,799.428 C270.466,795.424 257.376,789.572 257.376,773.402 C257.376,758.31 269.85,747.838 289.254,747.838 C302.344,747.838 312.816,750.918 321.902,754.614 L314.818,770.322 C306.656,767.242 297.108,764.932 288.792,764.932 C280.63,764.932 276.472,767.858 276.472,772.324 C276.472,776.944 281.554,779.1 294.952,781.872 C314.356,785.876 325.598,792.652 325.598,807.898 C325.598,823.76 313.432,834.232 292.026,834.232 C277.55,834.232 268.156,832.23 255.836,826.224 Z M392.434,782.026 L423.388,833 L399.672,833 L378.266,798.812 L362.096,814.366 L362.096,833 L340.69,833 L340.69,716.884 L362.096,716.884 L362.096,785.26 L397.824,749.378 L422.926,749.378 L392.434,782.026 Z M479.752,747.838 C503.16,747.838 522.102,764.932 522.102,791.112 C522.102,816.83 503.16,834.386 479.752,834.386 C470.974,834.386 462.35,831.922 455.42,827.764 L455.42,833 L434.014,833 L434.014,716.884 L455.42,716.884 L455.42,754.152 C462.504,750.302 470.82,747.838 479.752,747.838 Z M475.902,814.982 C490.378,814.982 501.004,805.28 501.004,791.112 C501.004,777.406 490.378,767.088 475.902,767.088 C467.74,767.088 460.656,769.86 455.42,774.172 L455.42,807.744 C460.656,812.21 467.894,814.982 475.902,814.982 Z M579.082,747.838 C604.338,747.838 624.82,767.088 624.82,791.112 C624.82,814.982 604.338,834.232 579.082,834.232 C553.826,834.232 533.344,814.982 533.344,791.112 C533.344,767.088 553.826,747.838 579.082,747.838 Z M579.082,814.982 C592.788,814.982 603.722,804.202 603.722,791.112 C603.722,777.868 592.788,767.088 579.082,767.088 C565.53,767.088 554.442,777.868 554.442,791.112 C554.442,804.202 565.53,814.982 579.082,814.982 Z M681.646,747.838 C706.902,747.838 727.384,767.088 727.384,791.112 C727.384,814.982 706.902,834.232 681.646,834.232 C656.39,834.232 635.908,814.982 635.908,791.112 C635.908,767.088 656.39,747.838 681.646,747.838 Z M681.646,814.982 C695.352,814.982 706.286,804.202 706.286,791.112 C706.286,777.868 695.352,767.088 681.646,767.088 C668.094,767.088 657.006,777.868 657.006,791.112 C657.006,804.202 668.094,814.982 681.646,814.982 Z M794.528,782.026 L825.482,833 L801.766,833 L780.36,798.812 L764.19,814.366 L764.19,833 L742.784,833 L742.784,716.884 L764.19,716.884 L764.19,785.26 L799.918,749.378 L825.02,749.378 L794.528,782.026 Z" id="Maskbook" fill="#1C68F3" fill-rule="nonzero"></path>
        <g id="Group" transform="translate(100.000000, 30.000000)">
            <circle id="Oval" fill="#1C68F3" cx="300" cy="300" r="300"></circle>
            <path d="M480,230 L480,330 L180,330 L180,330.001 L167.092637,330.001293 C180.753837,390.677229 234.970343,436 299.772548,436 C353.346739,436 399.685718,405.022375 421.854746,360.001864 L421.854746,360.001864 L480,360.001 L480,444 C480,463.882251 463.882251,480 444,480 L156,480 C136.117749,480 120,463.882251 120,444 L120,230 L480,230 Z M387.326493,360.00167 C368.234736,387.914297 336.14276,406.231603 299.772548,406.231603 C263.402336,406.231603 231.31036,387.914297 212.218603,360.00167 L212.218603,360.00167 Z M223,254 C194.788109,254 171.448756,274.861818 167.567063,302.000334 L167.567063,302.000334 L198.253822,302.000543 C201.627886,291.555206 211.431636,284 223,284 C234.568364,284 244.372114,291.555206 247.746178,302.000543 L247.746178,302.000543 L278.432937,302.000334 C274.551244,274.861818 251.211891,254 223,254 Z M377,254 C348.788109,254 325.448756,274.861818 321.567063,302.000334 L321.567063,302.000334 L352.253822,302.000543 C355.627886,291.555206 365.431636,284 377,284 C388.568364,284 398.372114,291.555206 401.746178,302.000543 L401.746178,302.000543 L432.432937,302.000334 C428.551244,274.861818 405.211891,254 377,254 Z M444,120 C463.882251,120 480,136.117749 480,156 L480,200 L120,200 L120,156 C120,136.117749 136.117749,120 156,120 L444,120 Z" id="maskbook-icon--book--black" fill="#FFFFFF"></path>
        </g>
    </g>
</svg>