<svg height="230" viewBox="0 0 1561 230" width="1561" xmlns="http://www.w3.org/2000/svg"><path d="m438.1 74.5h21v211.5h-43.2v-117l-65.4 91.8-65.7-91.8v117h-42.9v-211.5h21l87.6 121.2zm183.6 48.6h41.7v162.9h-41.7v-12c-13.5 9-29.7 14.4-47.7 14.4-51 0-81-41.1-81-84.3 0-43.5 30-84.3 81-84.3 17.1 0 33.9 5.4 47.7 13.5zm0 114v-65.4c-10.2-8.7-24.6-14.1-40.2-14.1-29.7 0-48.3 22.2-48.3 46.5 0 24.6 18.9 46.8 48.3 46.8 15.9 0 30-5.1 40.2-13.8zm70.2 35.7 15.6-30.9c20.1 8.7 35.4 13.2 55.8 13.2 19.2 0 26.7-7.2 26.7-15.6 0-9.3-9.3-13.5-34.5-18.9-35.1-7.8-60.6-19.2-60.6-50.7 0-29.4 24.3-49.8 62.1-49.8 25.5 0 45.9 6 63.6 13.2l-13.8 30.6c-15.9-6-34.5-10.5-50.7-10.5-15.9 0-24 5.7-24 14.4 0 9 9.9 13.2 36 18.6 37.8 7.8 59.7 21 59.7 50.7 0 30.9-23.7 51.3-65.4 51.3-28.2 0-46.5-3.9-70.5-15.6zm266.1-86.1 60.3 99.3h-46.2l-41.7-66.6-31.5 30.3v36.3h-41.7v-226.2h41.7v133.2l69.6-69.9h48.9zm170.1-66.6c45.6 0 82.5 33.3 82.5 84.3 0 50.1-36.9 84.3-82.5 84.3-17.1 0-33.9-4.8-47.4-12.9v10.2h-41.7v-226.2h41.7v72.6c13.8-7.5 30-12.3 47.4-12.3zm-7.5 130.8c28.2 0 48.9-18.9 48.9-46.5 0-26.7-20.7-46.8-48.9-46.8-15.9 0-29.7 5.4-39.9 13.8v65.4c10.2 8.7 24.3 14.1 39.9 14.1zm201-130.8c49.2 0 89.1 37.5 89.1 84.3 0 46.5-39.9 84-89.1 84s-89.1-37.5-89.1-84c0-46.8 39.9-84.3 89.1-84.3zm0 130.8c26.7 0 48-21 48-46.5 0-25.8-21.3-46.8-48-46.8-26.4 0-48 21-48 46.8 0 25.5 21.6 46.5 48 46.5zm199.8-130.8c49.2 0 89.1 37.5 89.1 84.3 0 46.5-39.9 84-89.1 84s-89.1-37.5-89.1-84c0-46.8 39.9-84.3 89.1-84.3zm0 130.8c26.7 0 48-21 48-46.5 0-25.8-21.3-46.8-48-46.8-26.4 0-48 21-48 46.8 0 25.5 21.6 46.5 48 46.5zm219.9-64.2 60.3 99.3h-46.2l-41.7-66.6-31.5 30.3v36.3h-41.7v-226.2h41.7v133.2l69.6-69.9h48.9z" fill="#1c68f3" transform="translate(-241 -59)"/></svg>