<?xml version="1.0" encoding="UTF-8"?>
<svg width="500px" height="500px" viewBox="0 0 500 500" version="1.1" xmlns="http://www.w3.org/2000/svg" xmlns:xlink="http://www.w3.org/1999/xlink">
    <!-- Generator: Sketch 56.3 (81716) - https://sketch.com -->
    <title>MB--SquareCanvas--WhiteOverBlue</title>
    <desc>Created with Sketch.</desc>
    <defs>
        <path d="M430,150 L70,150 L70,106 C70,86.117749 86.117749,70 106,70 L394,70 C413.882251,70 430,86.117749 430,106 L430,150 Z M430,180 L430,280 L370,280 L139.004811,280 L117.092346,280 C130.753067,340.676586 184.969882,386 249.772548,386 C303.347479,386 349.686997,355.02152 371.855663,310 L430,310 L430,394 C430,413.882251 413.882251,430 394,430 L106,430 C86.117749,430 70,413.882251 70,394 L70,180 L430,180 Z M162.217461,310 L337.327632,310.000005 C318.236012,337.913569 286.143483,356.231603 249.772548,356.231603 C213.401613,356.231603 181.309084,337.913569 162.217464,310.000005 Z M117.567111,252 L148.253998,252 C151.628225,241.554944 161.431837,234 173,234 C184.568163,234 194.371775,241.554944 197.746002,252 L228.432889,252 C224.551052,224.861647 201.211775,204 173,204 C144.788225,204 121.448948,224.861647 117.567111,252 Z M271.567111,252 L302.253998,252 C305.628225,241.554944 315.431837,234 327,234 C338.568163,234 348.371775,241.554944 351.746002,252 L382.432889,252 C378.551052,224.861647 355.211775,204 327,204 C298.788225,204 275.448948,224.861647 271.567111,252 Z" id="path-1"></path>
    </defs>
    <g id="MB--SquareCanvas--WhiteOverBlue" stroke="none" stroke-width="1" fill="none" fill-rule="evenodd">
        <rect id="Rectangle" fill="#1C68F3" x="0" y="0" width="500" height="500" rx="50"></rect>
        <mask id="mask-2" fill="white">
            <use xlink:href="#path-1"></use>
        </mask>
        <use id="maskbook-icon--book--black" fill="#FFFFFF" xlink:href="#path-1"></use>
    </g>
</svg>