<?xml version="1.0" encoding="UTF-8"?>
<svg width="600px" height="600px" viewBox="0 0 600 600" version="1.1" xmlns="http://www.w3.org/2000/svg" xmlns:xlink="http://www.w3.org/1999/xlink">
    <!-- Generator: Sketch 56.3 (81716) - https://sketch.com -->
    <title>MB--CircleCanvas--WhiteOverBlue</title>
    <desc>Created with Sketch.</desc>
    <g id="MB--CircleCanvas--WhiteOverBlue" stroke="none" stroke-width="1" fill="none" fill-rule="evenodd">
        <circle id="Oval" fill="#1C68F3" cx="300" cy="300" r="300"></circle>
        <path d="M480,200 L120,200 L120,156 C120,136.117749 136.117749,120 156,120 L444,120 C463.882251,120 480,136.117749 480,156 L480,200 Z M480,230 L480,330 L420,330 L189.004811,330 L167.092346,330 C180.753067,390.676586 234.969882,436 299.772548,436 C353.347479,436 399.686997,405.02152 421.855663,360 L480,360 L480,444 C480,463.882251 463.882251,480 444,480 L156,480 C136.117749,480 120,463.882251 120,444 L120,230 L480,230 Z M212.217461,360 L387.327632,360.000005 C368.236012,387.913569 336.143483,406.231603 299.772548,406.231603 C263.401613,406.231603 231.309084,387.913569 212.217464,360.000005 Z M167.567111,302 L198.253998,302 C201.628225,291.554944 211.431837,284 223,284 C234.568163,284 244.371775,291.554944 247.746002,302 L278.432889,302 C274.551052,274.861647 251.211775,254 223,254 C194.788225,254 171.448948,274.861647 167.567111,302 Z M321.567111,302 L352.253998,302 C355.628225,291.554944 365.431837,284 377,284 C388.568163,284 398.371775,291.554944 401.746002,302 L432.432889,302 C428.551052,274.861647 405.211775,254 377,254 C348.788225,254 325.448948,274.861647 321.567111,302 Z" id="maskbook-icon--book--black" fill="#FFFFFF"></path>
    </g>
</svg>